<?xml version="1.0" encoding="UTF-8" standalone="no"?>
<svg
   xmlns:dc="http://purl.org/dc/elements/1.1/"
   xmlns:cc="http://creativecommons.org/ns#"
   xmlns:rdf="http://www.w3.org/1999/02/22-rdf-syntax-ns#"
   xmlns:svg="http://www.w3.org/2000/svg"
   xmlns="http://www.w3.org/2000/svg"
   xmlns:sodipodi="http://sodipodi.sourceforge.net/DTD/sodipodi-0.dtd"
   xmlns:inkscape="http://www.inkscape.org/namespaces/inkscape"
   width="7.2677202in"
   height="6.6929102in"
   viewBox="0 0 184.6001 169.99993"
   version="1.1"
   id="svg183"
   inkscape:version="1.0.2 (1.0.2+r75+1)"
   sodipodi:docname="full_magswitch.svg">
  <defs
     id="defs177" />
  <sodipodi:namedview
     id="base"
     pagecolor="#ffffff"
     bordercolor="#666666"
     borderopacity="1.0"
     inkscape:pageopacity="0.0"
     inkscape:pageshadow="2"
     inkscape:zoom="1.4142136"
     inkscape:cx="377.44096"
     inkscape:cy="345.94055"
     inkscape:document-units="in"
     inkscape:current-layer="layer1"
     inkscape:document-rotation="0"
     showgrid="false"
     inkscape:window-width="2488"
     inkscape:window-height="1376"
     inkscape:window-x="72"
     inkscape:window-y="27"
     inkscape:window-maximized="1"
     units="in" />
  <metadata
     id="metadata180">
    <rdf:RDF>
      <cc:Work
         rdf:about="">
        <dc:format>image/svg+xml</dc:format>
        <dc:type
           rdf:resource="http://purl.org/dc/dcmitype/StillImage" />
        <dc:title></dc:title>
      </cc:Work>
    </rdf:RDF>
  </metadata>
  <g
     inkscape:label="Layer 1"
     inkscape:groupmode="layer"
     id="layer1">
    <circle
       style="fill:none;stroke:#000000;stroke-width:0.0264583;stroke-miterlimit:4;stroke-dasharray:none"
       id="path185"
       cx="5.0046186"
       cy="4.225894"
       r="0.88075113" />
    <circle
       style="fill:none;stroke:#000000;stroke-width:0.0264583;stroke-miterlimit:4;stroke-dasharray:none"
       id="circle207"
       cx="7.9679551"
       cy="4.3528938"
       r="1.0065727" />
    <ellipse
       style="fill:none;stroke:#000000;stroke-width:0.0264583;stroke-miterlimit:4;stroke-dasharray:none"
       id="circle209"
       cx="11.154273"
       cy="4.4798942"
       rx="1.1323944"
       ry="1.1323943" />
    <circle
       style="fill:none;stroke:#000000;stroke-width:0.0264583;stroke-miterlimit:4;stroke-dasharray:none"
       id="ellipse211"
       cx="14.516917"
       cy="4.606894"
       r="1.2582159" />
    <circle
       style="fill:none;stroke:#000000;stroke-width:0.027;stroke-miterlimit:4;stroke-dasharray:none"
       id="circle213"
       cx="-47.175117"
       cy="6.5120969"
       transform="scale(-1,1)"
       r="3.1617029" />
    <circle
       style="fill:none;stroke:#000000;stroke-width:0.0264583;stroke-miterlimit:4;stroke-dasharray:none"
       id="circle215"
       cx="2.4146957"
       cy="4.0988936"
       r="0.75492954" />
    <circle
       style="fill:none;stroke:#000000;stroke-width:0.0255304;stroke-miterlimit:4;stroke-dasharray:none"
       id="circle1040"
       cx="-39.898697"
       cy="6.3850965"
       transform="scale(-1,1)"
       r="3.0352347" />
    <circle
       style="fill:none;stroke:#000000;stroke-width:0.0244666;stroke-miterlimit:4;stroke-dasharray:none"
       id="circle1042"
       cx="-32.915535"
       cy="6.2580967"
       transform="scale(-1,1)"
       r="2.9087667" />
    <circle
       style="fill:none;stroke:#000000;stroke-width:0.0234029;stroke-miterlimit:4;stroke-dasharray:none"
       id="circle1044"
       cx="-26.086313"
       cy="6.1310968"
       transform="scale(-1,1)"
       r="2.7822986" />
    <circle
       style="fill:none;stroke:#000000;stroke-width:0.0223391;stroke-miterlimit:4;stroke-dasharray:none"
       id="circle1046"
       cx="-19.607677"
       cy="6.0040965"
       transform="scale(-1,1)"
       r="2.6558304" />
    <text
       xml:space="preserve"
       style="font-style:normal;font-weight:normal;font-size:10.5833px;line-height:1.25;font-family:sans-serif;fill:#000000;fill-opacity:1;stroke:none;stroke-width:0.264583"
       x="0.42166179"
       y="3.163157"
       id="text1050"><tspan
         sodipodi:role="line"
         id="tspan1048"
         x="0.42166179"
         y="3.163157"
         style="stroke-width:0.264583" /></text>
    <circle
       style="fill:none;stroke:#000000;stroke-width:0.0264583;stroke-miterlimit:4;stroke-dasharray:none"
       id="circle1052"
       cx="-64.481194"
       cy="17.30689"
       transform="scale(-1,1)"
       r="6.3234057" />
    <circle
       style="fill:none;stroke:#000000;stroke-width:0.0264583;stroke-miterlimit:4;stroke-dasharray:none"
       id="circle1054"
       cx="-50.670574"
       cy="17.179892"
       transform="scale(-1,1)"
       r="6.1969376" />
    <circle
       style="fill:none;stroke:#000000;stroke-width:0.0264583;stroke-miterlimit:4;stroke-dasharray:none"
       id="circle1056"
       cx="-37.062"
       cy="17.052891"
       transform="scale(-1,1)"
       r="6.0704694" />
    <circle
       style="fill:none;stroke:#000000;stroke-width:0.0264583;stroke-miterlimit:4;stroke-dasharray:none"
       id="circle1058"
       cx="-23.760792"
       cy="16.925892"
       transform="scale(-1,1)"
       r="5.9440012" />
    <ellipse
       style="fill:none;stroke:#000000;stroke-width:0.0264583;stroke-miterlimit:4;stroke-dasharray:none"
       id="circle1060"
       cx="-10.669698"
       cy="16.798891"
       transform="scale(-1,1)"
       rx="5.817533"
       ry="5.8175335" />
    <rect
       style="fill:none;stroke:#000000;stroke-width:0.0235306;stroke-miterlimit:4;stroke-dasharray:none"
       id="rect1062"
       width="4.7008696"
       height="4.7008696"
       x="74.805809"
       y="3.3488622" />
    <rect
       style="fill:none;stroke:#000000;stroke-width:0.0184702;stroke-miterlimit:4;stroke-dasharray:none"
       id="rect1066"
       width="3.6899297"
       height="3.6899297"
       x="52.302757"
       y="3.3463321" />
    <rect
       style="fill:none;stroke:#000000;stroke-width:0.0197354;stroke-miterlimit:4;stroke-dasharray:none"
       id="rect1068"
       width="3.9426646"
       height="3.9426646"
       x="57.463787"
       y="3.3469646" />
    <rect
       style="fill:none;stroke:#000000;stroke-width:0.0210003;stroke-miterlimit:4;stroke-dasharray:none"
       id="rect1070"
       width="4.1953993"
       height="4.1953998"
       x="62.973843"
       y="3.3549664" />
    <rect
       style="fill:none;stroke:#000000;stroke-width:0.0222655;stroke-miterlimit:4;stroke-dasharray:none"
       id="rect1072"
       width="4.4481344"
       height="4.4481344"
       x="68.772621"
       y="3.3482296" />
    <path
       id="use935"
       style="fill:none;stroke:#000000;stroke-width:0.0304273"
       inkscape:transform-center-x="0.1269989"
       inkscape:transform-center-y="-28.575"
       d="m 30.437013,30.850134 a 1.2547864,1.2547863 75 0 0 -1.5368,-0.88727 1.2547864,1.2547863 75 0 0 -0.88727,1.5368 1.2547864,1.2547863 75 0 0 1.5368,0.88727 1.2547864,1.2547863 75 0 0 0.88727,-1.5368 z m -7.00443,2.58264 a 1.2547864,1.2547863 60 0 0 -1.71407,-0.45928 1.2547864,1.2547863 60 0 0 -0.45928,1.71407 1.2547864,1.2547863 60 0 0 1.71407,0.45928 1.2547864,1.2547863 60 0 0 0.45928,-1.71407 z m -6.09731,4.30751 a 1.2547864,1.2547863 45 0 0 -1.77454,0 1.2547864,1.2547863 45 0 0 0,1.77454 1.2547864,1.2547863 45 0 0 1.77454,0 1.2547864,1.2547863 45 0 0 0,-1.77454 z m -4.77469,5.73884 a 1.2547864,1.2547863 30 0 0 -1.71407,0.45928 1.2547864,1.2547863 30 0 0 0.45928,1.71407 1.2547864,1.2547863 30 0 0 1.71407,-0.45928 1.2547864,1.2547863 30 0 0 -0.45928,-1.71407 z m -3.1266697,6.77907 a 1.2547864,1.2547863 15 0 0 -1.53679,0.88727 1.2547864,1.2547863 15 0 0 0.88726,1.53679 1.2547864,1.2547863 15 0 0 1.5367997,-0.88727 1.2547864,1.2547863 15 0 0 -0.8872697,-1.53679 z m -1.26558,7.35732 a 1.2547864,1.2547863 0 0 0 -1.2547897,1.25479 1.2547864,1.2547863 0 0 0 1.2547897,1.25479 1.2547864,1.2547863 0 0 0 1.25478,-1.25479 1.2547864,1.2547863 0 0 0 -1.25478,-1.25479 z m 0.68175,7.43419 a 1.2547863,1.2547864 75 0 0 -0.88727,1.53679 1.2547863,1.2547864 75 0 0 1.5368,0.88727 1.2547863,1.2547864 75 0 0 0.8872597,-1.53679 1.2547863,1.2547864 75 0 0 -1.5367897,-0.88727 z m 2.5826397,7.00442 a 1.2547863,1.2547864 60 0 0 -0.45929,1.71407 1.2547863,1.2547864 60 0 0 1.71407,0.45928 1.2547863,1.2547864 60 0 0 0.45929,-1.71407 1.2547863,1.2547864 60 0 0 -1.71407,-0.45928 z m 4.30751,6.09731 a 1.2547863,1.2547864 45 0 0 0,1.77454 1.2547863,1.2547864 45 0 0 1.77453,0 1.2547863,1.2547864 45 0 0 1e-5,-1.77454 1.2547863,1.2547864 45 0 0 -1.77454,0 z m 5.73884,4.77469 a 1.2547863,1.2547864 30 0 0 0.45928,1.71407 1.2547863,1.2547864 30 0 0 1.71407,-0.45928 1.2547863,1.2547864 30 0 0 -0.45928,-1.71407 1.2547863,1.2547864 30 0 0 -1.71407,0.45928 z m 6.77908,3.12668 a 1.2547863,1.2547864 15 0 0 0.88726,1.53679 1.2547863,1.2547864 15 0 0 1.5368,-0.88727 1.2547863,1.2547864 15 0 0 -0.88727,-1.53679 1.2547863,1.2547864 15 0 0 -1.53679,0.88727 z m 7.35731,1.26557 a 1.2547863,1.2547864 0 0 0 1.25478,1.25479 1.2547863,1.2547864 0 0 0 1.25479,-1.25479 1.2547863,1.2547864 0 0 0 -1.25479,-1.25478 1.2547863,1.2547864 0 0 0 -1.25478,1.25478 z m 7.43418,-0.68175 a 1.2547864,1.2547863 75 0 0 1.53679,0.88727 1.2547864,1.2547863 75 0 0 0.88727,-1.53679 1.2547864,1.2547863 75 0 0 -1.53679,-0.88727 1.2547864,1.2547863 75 0 0 -0.88727,1.53679 z m 7.00442,-2.58264 a 1.2547864,1.2547863 60 0 0 1.71407,0.45929 1.2547864,1.2547863 60 0 0 0.45929,-1.71407 1.2547864,1.2547863 60 0 0 -1.71407,-0.45929 1.2547864,1.2547863 60 0 0 -0.45929,1.71407 z m 6.09732,-4.3075 a 1.2547864,1.2547863 45 0 0 1.77454,-10e-6 1.2547864,1.2547863 45 0 0 0,-1.77453 1.2547864,1.2547863 45 0 0 -1.77454,0 1.2547864,1.2547863 45 0 0 0,1.77454 z m 4.77468,-5.73885 a 1.2547864,1.2547863 30 0 0 1.71408,-0.45928 1.2547864,1.2547863 30 0 0 -0.45929,-1.71407 1.2547864,1.2547863 30 0 0 -1.71407,0.45928 1.2547864,1.2547863 30 0 0 0.45928,1.71407 z m 3.12668,-6.77907 a 1.2547864,1.2547863 15 0 0 1.53679,-0.88726 1.2547864,1.2547863 15 0 0 -0.88726,-1.5368 1.2547864,1.2547863 15 0 0 -1.53681,0.88727 1.2547864,1.2547863 15 0 0 0.88728,1.53679 z m 1.26559,-7.35732 a 1.2547864,1.2547863 0 0 0 1.25477,-1.25478 1.2547864,1.2547863 0 0 0 -1.25478,-1.25479 1.2547864,1.2547863 0 0 0 -1.25479,1.25479 1.2547864,1.2547863 0 0 0 1.2548,1.25478 z m -0.68176,-7.43418 a 1.2547863,1.2547864 75 0 0 0.88727,-1.5368 1.2547863,1.2547864 75 0 0 -1.5368,-0.88727 1.2547863,1.2547864 75 0 0 -0.88727,1.5368 1.2547863,1.2547864 75 0 0 1.5368,0.88727 z m -2.58264,-7.00442 a 1.2547863,1.2547864 60 0 0 0.45929,-1.71408 1.2547863,1.2547864 60 0 0 -1.71408,-0.45928 1.2547863,1.2547864 60 0 0 -0.45929,1.71407 1.2547863,1.2547864 60 0 0 1.71408,0.45929 z m -4.30751,-6.09732 a 1.2547863,1.2547864 45 0 0 0,-1.77454 1.2547863,1.2547864 45 0 0 -1.77454,1e-5 1.2547863,1.2547864 45 0 0 1e-5,1.77453 1.2547863,1.2547864 45 0 0 1.77453,0 z m -5.73884,-4.77468 a 1.2547863,1.2547864 30 0 0 -0.45929,-1.71408 1.2547863,1.2547864 30 0 0 -1.71407,0.45929 1.2547863,1.2547864 30 0 0 0.45929,1.71407 1.2547863,1.2547864 30 0 0 1.71407,-0.45928 z m -6.77907,-3.12668 a 1.2547863,1.2547864 15 0 0 -0.88727,-1.53679 1.2547863,1.2547864 15 0 0 -1.53679,0.88726 1.2547863,1.2547864 15 0 0 0.88727,1.5368 1.2547863,1.2547864 15 0 0 1.53679,-0.88727 z m -7.35733,-1.26558 a 1.2547863,1.2547864 0 0 0 -1.25478,-1.25479 1.2547863,1.2547864 0 0 0 -1.25479,1.25479 1.2547863,1.2547864 0 0 0 1.25479,1.25479 1.2547863,1.2547864 0 0 0 1.25478,-1.25479 z m 0,0 a 1.2547863,1.2547864 0 0 0 -1.25478,-1.25479 1.2547863,1.2547864 0 0 0 -1.25479,1.25479 1.2547863,1.2547864 0 0 0 1.25479,1.25479 1.2547863,1.2547864 0 0 0 1.25478,-1.25479 z m -1.12773,8.77672 a 3.1611621,3.1611621 0 0 0 -3.16106,3.16105 3.1611621,3.1611621 0 0 0 0.83768,2.14353 v 8.60051 a 6.3347416,6.3347411 0 0 0 -1.5782,0.90227 l -7.49773,-4.32841 a 3.1611621,3.1611621 0 0 0 -1.44591,-1.82367 3.1611621,3.1611621 0 0 0 -4.3181,1.15704 3.1611621,3.1611621 0 0 0 1.15704,4.31808 3.1611621,3.1611621 0 0 0 2.2128,0.35967 l -0.0119,0.0202 7.5401,4.35374 a 6.3347416,6.3347411 0 0 0 -0.0693,0.93431 6.3347416,6.3347411 0 0 0 0.062,0.88367 l -7.39902,4.27157 a 3.1611621,3.1611621 0 0 0 -2.41899,0.31006 3.1611621,3.1611621 0 0 0 -1.15704,4.3186 3.1611621,3.1611621 0 0 0 4.3181,1.15704 3.1611621,3.1611621 0 0 0 1.4056,-1.70068 l 0.0413,0.0718 7.54011,-4.35322 a 6.3347416,6.3347411 0 0 0 1.57097,0.91519 v 8.43308 a 3.1630758,3.1630761 0 0 0 -0.96945,2.27893 3.1630758,3.1630761 0 0 0 3.16311,3.16312 3.1630758,3.1630761 0 0 0 3.16312,-3.16312 3.1630758,3.1630761 0 0 0 -0.66197,-1.9358 v -8.75709 a 6.3347416,6.3347411 0 0 0 1.57819,-0.90227 l 7.31584,4.22352 a 3.1611621,3.1611621 0 0 0 1.45934,1.87223 3.1611621,3.1611621 0 0 0 4.31809,-1.15703 3.1611621,3.1611621 0 0 0 -1.15703,-4.31809 3.1611621,3.1611621 0 0 0 -2.12391,-0.3762 l -7.44865,-4.30103 a 6.3347416,6.3347411 0 0 0 0.0692,-0.93431 6.3347416,6.3347411 0 0 0 -0.062,-0.88366 l 7.41816,-4.28295 a 3.1611621,3.1611621 0 0 0 2.23139,-0.35553 3.1611621,3.1611621 0 0 0 1.15704,-4.31808 3.1611621,3.1611621 0 0 0 -4.31809,-1.15704 3.1611621,3.1611621 0 0 0 -1.42937,1.7725 l -7.38922,4.26589 a 6.3347416,6.3347411 0 0 0 -1.57096,-0.91519 v -8.67285 a 3.1611621,3.1611621 0 0 0 0.78962,-2.09031 3.1611621,3.1611621 0 0 0 -3.16105,-3.16105 z m 31.72809,19.79827 a 31.728161,31.728161 0 0 1 -31.72817,31.72816 31.728161,31.728161 0 0 1 -31.7281594,-31.72816 31.728161,31.728161 0 0 1 31.7281594,-31.72816 31.728161,31.728161 0 0 1 31.72817,31.72816 z" />
    <path
       id="use175"
       style="fill:none;stroke:#000000;stroke-width:0.0276761"
       inkscape:transform-center-x="1.9073487e-06"
       inkscape:transform-center-y="-16.636999"
       d="m 87.568875,16.367599 a 3.1611621,3.1611621 0 0 1 1.157066,4.318228 3.1611621,3.1611621 0 0 1 -4.318228,1.157065 3.1611621,3.1611621 0 0 1 -1.157065,-4.318227 3.1611621,3.1611621 0 0 1 4.318227,-1.157066 z m -3.161149,16.636985 a 3.1611621,3.1611621 0 0 1 4.318224,1.15707 3.1611621,3.1611621 0 0 1 -1.157062,4.318232 3.1611621,3.1611621 0 0 1 -4.31823,-1.157073 3.1611621,3.1611621 0 0 1 1.157068,-4.318229 z m 12.82748,11.056151 a 3.1611621,3.1611621 0 0 1 3.161164,-3.161155 3.1611621,3.1611621 0 0 1 3.16116,3.161158 3.1611621,3.1611621 0 0 1 -3.16117,3.161162 3.1611621,3.1611621 0 0 1 -3.161154,-3.161165 z m 15.988644,-5.58085 a 3.1611621,3.1611621 0 0 1 -1.15707,-4.318231 3.1611621,3.1611621 0 0 1 4.31823,-1.157063 3.1611621,3.1611621 0 0 1 1.15706,4.318228 3.1611621,3.1611621 0 0 1 -4.31822,1.157066 z m 3.16116,-16.636994 a 3.1611621,3.1611621 0 0 1 -4.31823,-1.157072 3.1611621,3.1611621 0 0 1 1.15707,-4.318226 3.1611621,3.1611621 0 0 1 4.31823,1.157064 3.1611621,3.1611621 0 0 1 -1.15707,4.318234 z M 103.55753,10.786747 a 3.1611621,3.1611621 0 0 1 -3.16116,3.16116 3.1611621,3.1611621 0 0 1 -3.161164,-3.16116 3.1611621,3.1611621 0 0 1 3.161164,-3.1611701 3.1611621,3.1611621 0 0 1 3.16116,3.1611701 z m 0,0 a 3.1611621,3.1611621 0 0 1 -3.16116,3.16116 3.1611621,3.1611621 0 0 1 -3.161164,-3.16116 3.1611621,3.1611621 0 0 1 3.161164,-3.1611701 3.1611621,3.1611621 0 0 1 3.16116,3.1611701 z m 3.17358,16.63699 a 6.3347416,6.3347411 0 0 1 -6.33474,6.33474 6.3347416,6.3347411 0 0 1 -6.334746,-6.33474 6.3347416,6.3347411 0 0 1 6.334746,-6.33474 6.3347416,6.3347411 0 0 1 6.33474,6.33474 z m 19.04779,1e-6 A 25.382528,25.382528 0 0 1 100.39637,52.806267 25.382528,25.382528 0 0 1 75.013838,27.423738 25.382528,25.382528 0 0 1 100.39637,2.0412069 25.382528,25.382528 0 0 1 125.7789,27.423738 Z" />
    <path
       id="path30-5"
       style="fill:none;stroke:#000000;stroke-width:0.0305176"
       d="m 155.40631,7.6285119 a 3.1611621,3.1611621 0 0 0 -3.16105,3.1610601 3.1611621,3.1611621 0 0 0 0.83768,2.143547 v 8.600557 a 6.3347416,6.3347411 0 0 0 -1.5782,0.90228 l -7.49773,-4.32845 a 3.1611621,3.1611621 0 0 0 -1.44591,-1.823667 3.1611621,3.1611621 0 0 0 -4.31808,1.15704 3.1611621,3.1611621 0 0 0 1.15703,4.318107 3.1611621,3.1611621 0 0 0 2.21279,0.35967 l -0.0119,0.0202 7.54011,4.353767 a 6.3347416,6.3347411 0 0 0 -0.0692,0.93431 6.3347416,6.3347411 0 0 0 0.062,0.88367 l -7.39904,4.271596 a 3.1611621,3.1611621 0 0 0 -2.41897,0.31007 3.1611621,3.1611621 0 0 0 -1.15703,4.31863 3.1611621,3.1611621 0 0 0 4.31808,1.15704 3.1611621,3.1611621 0 0 0 1.4056,-1.70068 l 0.0413,0.0718 7.54011,-4.35326 a 6.3347416,6.3347411 0 0 0 1.57096,0.91521 v 8.43312 a 3.1630758,3.1630761 0 0 0 -0.96945,2.27893 3.1630758,3.1630761 0 0 0 3.16311,3.16312 3.1630758,3.1630761 0 0 0 3.16312,-3.16312 3.1630758,3.1630761 0 0 0 -0.66198,-1.9358 v -8.75713 a 6.3347416,6.3347411 0 0 0 1.5782,-0.90229 l 7.31584,4.22355 a 3.1611621,3.1611621 0 0 0 1.45935,1.87225 3.1611621,3.1611621 0 0 0 4.31808,-1.15704 3.1611621,3.1611621 0 0 0 -1.15703,-4.31811 3.1611621,3.1611621 0 0 0 -2.12391,-0.37621 l -7.44865,-4.301059 a 6.3347416,6.3347411 0 0 0 0.0693,-0.934317 6.3347416,6.3347411 0 0 0 -0.062,-0.88367 l 7.41816,-4.282967 a 3.1611621,3.1611621 0 0 0 2.23139,-0.35553 3.1611621,3.1611621 0 0 0 1.15704,-4.318107 3.1611621,3.1611621 0 0 0 -4.31808,-1.15704 3.1611621,3.1611621 0 0 0 -1.42938,1.772507 l -7.38921,4.26591 a 6.3347416,6.3347411 0 0 0 -1.57097,-0.91519 v -8.672947 a 3.1611621,3.1611621 0 0 0 0.78962,-2.090327 3.1611621,3.1611621 0 0 0 -3.16105,-3.1610601 z M 180.78032,27.425157 A 25.382528,25.382528 0 0 1 155.39779,52.807689 25.382528,25.382528 0 0 1 130.01526,27.425157 25.382528,25.382528 0 0 1 155.39779,2.0426279 25.382528,25.382528 0 0 1 180.78032,27.425157 Z" />
    <path
       id="path631"
       style="fill:none;stroke:#000000;stroke-width:0.0304273"
       inkscape:transform-center-x="0.1269989"
       inkscape:transform-center-y="-28.575"
       d="m 30.437013,98.850144 a 1.2547864,1.2547863 75 0 0 -1.5368,-0.88726 1.2547864,1.2547863 75 0 0 -0.88727,1.53679 1.2547864,1.2547863 75 0 0 1.5368,0.887266 1.2547864,1.2547863 75 0 0 0.88727,-1.536796 z m -7.00443,2.582636 a 1.2547864,1.2547863 60 0 0 -1.71407,-0.45928 1.2547864,1.2547863 60 0 0 -0.45928,1.71407 1.2547864,1.2547863 60 0 0 1.71407,0.45928 1.2547864,1.2547863 60 0 0 0.45928,-1.71407 z m -6.09731,4.30751 a 1.2547864,1.2547863 45 0 0 -1.77454,0 1.2547864,1.2547863 45 0 0 0,1.77454 1.2547864,1.2547863 45 0 0 1.77454,0 1.2547864,1.2547863 45 0 0 0,-1.77454 z m -4.77469,5.73884 a 1.2547864,1.2547863 30 0 0 -1.71407,0.45928 1.2547864,1.2547863 30 0 0 0.45928,1.71407 1.2547864,1.2547863 30 0 0 1.71407,-0.45928 1.2547864,1.2547863 30 0 0 -0.45928,-1.71407 z m -3.1266696,6.77907 a 1.2547864,1.2547863 15 0 0 -1.53679,0.88727 1.2547864,1.2547863 15 0 0 0.88726,1.53679 1.2547864,1.2547863 15 0 0 1.5367996,-0.88727 1.2547864,1.2547863 15 0 0 -0.8872696,-1.53679 z m -1.26558,7.35732 a 1.2547864,1.2547863 0 0 0 -1.25479,1.25479 1.2547864,1.2547863 0 0 0 1.25479,1.25479 1.2547864,1.2547863 0 0 0 1.25478,-1.25479 1.2547864,1.2547863 0 0 0 -1.25478,-1.25479 z m 0.68175,7.43419 a 1.2547863,1.2547864 75 0 0 -0.88727,1.53679 1.2547863,1.2547864 75 0 0 1.5368,0.88727 1.2547863,1.2547864 75 0 0 0.8872596,-1.53679 1.2547863,1.2547864 75 0 0 -1.5367896,-0.88727 z m 2.5826396,7.00442 a 1.2547863,1.2547864 60 0 0 -0.45929,1.71406 1.2547863,1.2547864 60 0 0 1.71407,0.45929 1.2547863,1.2547864 60 0 0 0.45929,-1.71407 1.2547863,1.2547864 60 0 0 -1.71407,-0.45928 z m 4.30751,6.09731 a 1.2547863,1.2547864 45 0 0 0,1.77454 1.2547863,1.2547864 45 0 0 1.77453,-1e-5 1.2547863,1.2547864 45 0 0 1e-5,-1.77453 1.2547863,1.2547864 45 0 0 -1.77454,0 z m 5.73884,4.77469 a 1.2547863,1.2547864 30 0 0 0.45928,1.71407 1.2547863,1.2547864 30 0 0 1.71407,-0.45928 1.2547863,1.2547864 30 0 0 -0.45928,-1.71407 1.2547863,1.2547864 30 0 0 -1.71407,0.45928 z m 6.77908,3.12667 a 1.2547863,1.2547864 15 0 0 0.88726,1.5368 1.2547863,1.2547864 15 0 0 1.5368,-0.88727 1.2547863,1.2547864 15 0 0 -0.88727,-1.5368 1.2547863,1.2547864 15 0 0 -1.53679,0.88727 z m 7.35731,1.26558 a 1.2547863,1.2547864 0 0 0 1.25478,1.25479 1.2547863,1.2547864 0 0 0 1.25479,-1.25479 1.2547863,1.2547864 0 0 0 -1.25479,-1.25478 1.2547863,1.2547864 0 0 0 -1.25478,1.25478 z m 7.43418,-0.68175 a 1.2547864,1.2547863 75 0 0 1.53679,0.88727 1.2547864,1.2547863 75 0 0 0.88727,-1.53679 1.2547864,1.2547863 75 0 0 -1.53679,-0.88727 1.2547864,1.2547863 75 0 0 -0.88727,1.53679 z m 7.00442,-2.58264 a 1.2547864,1.2547863 60 0 0 1.71407,0.45929 1.2547864,1.2547863 60 0 0 0.45929,-1.71408 1.2547864,1.2547863 60 0 0 -1.71407,-0.45928 1.2547864,1.2547863 60 0 0 -0.45929,1.71407 z m 6.09732,-4.3075 a 1.2547864,1.2547863 45 0 0 1.77454,-1e-5 1.2547864,1.2547863 45 0 0 0,-1.77453 1.2547864,1.2547863 45 0 0 -1.77454,0 1.2547864,1.2547863 45 0 0 0,1.77454 z m 4.77468,-5.73885 a 1.2547864,1.2547863 30 0 0 1.71408,-0.45928 1.2547864,1.2547863 30 0 0 -0.45929,-1.71407 1.2547864,1.2547863 30 0 0 -1.71407,0.45928 1.2547864,1.2547863 30 0 0 0.45928,1.71407 z m 3.12668,-6.77907 a 1.2547864,1.2547863 15 0 0 1.53679,-0.88726 1.2547864,1.2547863 15 0 0 -0.88726,-1.5368 1.2547864,1.2547863 15 0 0 -1.53681,0.88727 1.2547864,1.2547863 15 0 0 0.88728,1.53679 z m 1.26559,-7.35732 a 1.2547864,1.2547863 0 0 0 1.25477,-1.25478 1.2547864,1.2547863 0 0 0 -1.25478,-1.25479 1.2547864,1.2547863 0 0 0 -1.25479,1.25479 1.2547864,1.2547863 0 0 0 1.2548,1.25478 z m -0.68176,-7.43418 a 1.2547863,1.2547864 75 0 0 0.88727,-1.5368 1.2547863,1.2547864 75 0 0 -1.5368,-0.88727 1.2547863,1.2547864 75 0 0 -0.88727,1.5368 1.2547863,1.2547864 75 0 0 1.5368,0.88727 z m -2.58264,-7.00442 a 1.2547863,1.2547864 60 0 0 0.45929,-1.71408 1.2547863,1.2547864 60 0 0 -1.71408,-0.45928 1.2547863,1.2547864 60 0 0 -0.45929,1.71407 1.2547863,1.2547864 60 0 0 1.71408,0.45929 z m -4.30751,-6.09732 a 1.2547863,1.2547864 45 0 0 0,-1.77454 1.2547863,1.2547864 45 0 0 -1.77454,1e-5 1.2547863,1.2547864 45 0 0 1e-5,1.77453 1.2547863,1.2547864 45 0 0 1.77453,0 z m -5.73884,-4.77468 a 1.2547863,1.2547864 30 0 0 -0.45929,-1.71407 1.2547863,1.2547864 30 0 0 -1.71407,0.45928 1.2547863,1.2547864 30 0 0 0.45929,1.71407 1.2547863,1.2547864 30 0 0 1.71407,-0.45928 z m -6.77907,-3.126676 a 1.2547863,1.2547864 15 0 0 -0.88727,-1.53679 1.2547863,1.2547864 15 0 0 -1.53679,0.88727 1.2547863,1.2547864 15 0 0 0.88727,1.536786 1.2547863,1.2547864 15 0 0 1.53679,-0.887266 z m -7.35733,-1.26558 a 1.2547863,1.2547864 0 0 0 -1.25478,-1.25479 1.2547863,1.2547864 0 0 0 -1.25479,1.25479 1.2547863,1.2547864 0 0 0 1.25479,1.25479 1.2547863,1.2547864 0 0 0 1.25478,-1.25479 z m 0,0 a 1.2547863,1.2547864 0 0 0 -1.25478,-1.25479 1.2547863,1.2547864 0 0 0 -1.25479,1.25479 1.2547863,1.2547864 0 0 0 1.25479,1.25479 1.2547863,1.2547864 0 0 0 1.25478,-1.25479 z m -1.12773,8.776716 a 3.1611621,3.1611621 0 0 0 -3.16106,3.16105 3.1611621,3.1611621 0 0 0 0.83768,2.14353 v 8.60051 a 6.3347416,6.3347411 0 0 0 -1.5782,0.90227 l -7.49773,-4.32841 a 3.1611621,3.1611621 0 0 0 -1.44591,-1.82367 3.1611621,3.1611621 0 0 0 -4.3181,1.15704 3.1611621,3.1611621 0 0 0 1.15704,4.31808 3.1611621,3.1611621 0 0 0 2.2128,0.35967 l -0.0119,0.0202 7.5401,4.35374 a 6.3347416,6.3347411 0 0 0 -0.0693,0.93431 6.3347416,6.3347411 0 0 0 0.062,0.88367 l -7.39902,4.27157 a 3.1611621,3.1611621 0 0 0 -2.41899,0.31006 3.1611621,3.1611621 0 0 0 -1.15704,4.3186 3.1611621,3.1611621 0 0 0 4.3181,1.15704 3.1611621,3.1611621 0 0 0 1.4056,-1.70068 l 0.0413,0.0718 7.54011,-4.35322 a 6.3347416,6.3347411 0 0 0 1.57097,0.91519 v 8.43308 a 3.1630758,3.1630761 0 0 0 -0.96945,2.27893 3.1630758,3.1630761 0 0 0 3.16311,3.16311 3.1630758,3.1630761 0 0 0 3.16312,-3.16311 3.1630758,3.1630761 0 0 0 -0.66197,-1.9358 v -8.75709 a 6.3347416,6.3347411 0 0 0 1.57819,-0.90227 l 7.31584,4.22352 a 3.1611621,3.1611621 0 0 0 1.45934,1.87223 3.1611621,3.1611621 0 0 0 4.31809,-1.15703 3.1611621,3.1611621 0 0 0 -1.15703,-4.31809 3.1611621,3.1611621 0 0 0 -2.12391,-0.3762 l -7.44865,-4.30103 a 6.3347416,6.3347411 0 0 0 0.0692,-0.93431 6.3347416,6.3347411 0 0 0 -0.062,-0.88366 l 7.41816,-4.28295 a 3.1611621,3.1611621 0 0 0 2.23139,-0.35553 3.1611621,3.1611621 0 0 0 1.15704,-4.31808 3.1611621,3.1611621 0 0 0 -4.31809,-1.15704 3.1611621,3.1611621 0 0 0 -1.42937,1.7725 l -7.38922,4.26589 a 6.3347416,6.3347411 0 0 0 -1.57096,-0.91519 v -8.67285 a 3.1611621,3.1611621 0 0 0 0.78962,-2.09031 3.1611621,3.1611621 0 0 0 -3.16105,-3.16105 z m 31.72809,19.79827 A 31.728161,31.728161 0 0 1 36.743373,158.47154 31.728161,31.728161 0 0 1 5.0152136,126.74338 31.728161,31.728161 0 0 1 36.743373,95.015214 31.728161,31.728161 0 0 1 68.471543,126.74338 Z" />
    <path
       id="path633"
       style="fill:none;stroke:#000000;stroke-width:0.0305176"
       d="m 155.40631,62.628512 a 3.1611621,3.1611621 0 0 0 -3.16105,3.16106 3.1611621,3.1611621 0 0 0 0.83768,2.143547 v 8.600557 a 6.3347416,6.3347411 0 0 0 -1.5782,0.902283 l -7.49773,-4.328453 a 3.1611621,3.1611621 0 0 0 -1.44591,-1.823667 3.1611621,3.1611621 0 0 0 -4.31808,1.15704 3.1611621,3.1611621 0 0 0 1.15703,4.318107 3.1611621,3.1611621 0 0 0 2.21279,0.359673 l -0.0119,0.0202 7.54011,4.35376 a 6.3347416,6.3347411 0 0 0 -0.0692,0.93431 6.3347416,6.3347411 0 0 0 0.062,0.88367 l -7.39904,4.2716 a 3.1611621,3.1611621 0 0 0 -2.41897,0.31007 3.1611621,3.1611621 0 0 0 -1.15703,4.31863 3.1611621,3.1611621 0 0 0 4.31808,1.15704 3.1611621,3.1611621 0 0 0 1.4056,-1.70068 l 0.0413,0.0718 7.54011,-4.35326 a 6.3347416,6.3347411 0 0 0 1.57096,0.91521 v 8.43312 a 3.1630758,3.1630761 0 0 0 -0.96945,2.27893 3.1630758,3.1630761 0 0 0 3.16311,3.163121 3.1630758,3.1630761 0 0 0 3.16312,-3.163121 3.1630758,3.1630761 0 0 0 -0.66198,-1.9358 v -8.75713 a 6.3347416,6.3347411 0 0 0 1.5782,-0.90229 l 7.31583,4.22355 a 3.1611621,3.1611621 0 0 0 1.45935,1.87225 3.1611621,3.1611621 0 0 0 4.31808,-1.15704 3.1611621,3.1611621 0 0 0 -1.15703,-4.31811 3.1611621,3.1611621 0 0 0 -2.12391,-0.37621 l -7.44864,-4.30106 a 6.3347416,6.3347411 0 0 0 0.0693,-0.93432 6.3347416,6.3347411 0 0 0 -0.062,-0.88367 l 7.41815,-4.28296 a 3.1611621,3.1611621 0 0 0 2.23139,-0.355533 3.1611621,3.1611621 0 0 0 1.15704,-4.318107 3.1611621,3.1611621 0 0 0 -4.31808,-1.15704 3.1611621,3.1611621 0 0 0 -1.42938,1.772507 l -7.3892,4.265913 a 6.3347416,6.3347411 0 0 0 -1.57097,-0.915193 v -8.672947 a 3.1611621,3.1611621 0 0 0 0.78962,-2.090327 3.1611621,3.1611621 0 0 0 -3.16105,-3.16106 z m 25.37401,19.796647 a 25.382528,25.382528 0 0 1 -25.38253,25.382531 25.382528,25.382528 0 0 1 -25.38253,-25.382531 25.382528,25.382528 0 0 1 25.38253,-25.382531 25.382528,25.382528 0 0 1 25.38253,25.382531 z" />
    <path
       id="path635"
       style="fill:none;stroke:#000000;stroke-width:0.0276761"
       inkscape:transform-center-x="1.9073487e-06"
       inkscape:transform-center-y="-16.636999"
       d="m 87.568875,71.367599 a 3.1611621,3.1611621 0 0 1 1.157066,4.31823 3.1611621,3.1611621 0 0 1 -4.318228,1.15707 3.1611621,3.1611621 0 0 1 -1.157065,-4.31823 3.1611621,3.1611621 0 0 1 4.318227,-1.15707 z m -3.161149,16.63699 a 3.1611621,3.1611621 0 0 1 4.318224,1.15707 3.1611621,3.1611621 0 0 1 -1.157062,4.31823 3.1611621,3.1611621 0 0 1 -4.31823,-1.15707 3.1611621,3.1611621 0 0 1 1.157068,-4.31823 z m 12.82748,11.05615 a 3.1611621,3.1611621 0 0 1 3.161164,-3.16116 3.1611621,3.1611621 0 0 1 3.16116,3.16116 3.1611621,3.1611621 0 0 1 -3.16117,3.161161 3.1611621,3.1611621 0 0 1 -3.161154,-3.161161 z m 15.988644,-5.58085 a 3.1611621,3.1611621 0 0 1 -1.15707,-4.31823 3.1611621,3.1611621 0 0 1 4.31823,-1.15707 3.1611621,3.1611621 0 0 1 1.15706,4.31823 3.1611621,3.1611621 0 0 1 -4.31822,1.15707 z m 3.16116,-16.637 a 3.1611621,3.1611621 0 0 1 -4.31823,-1.15707 3.1611621,3.1611621 0 0 1 1.15707,-4.318226 3.1611621,3.1611621 0 0 1 4.31823,1.157066 3.1611621,3.1611621 0 0 1 -1.15707,4.31823 z M 103.55753,65.786747 a 3.1611621,3.1611621 0 0 1 -3.16116,3.16116 3.1611621,3.1611621 0 0 1 -3.161164,-3.16116 3.1611621,3.1611621 0 0 1 3.161164,-3.16117 3.1611621,3.1611621 0 0 1 3.16116,3.16117 z m 0,0 a 3.1611621,3.1611621 0 0 1 -3.16116,3.16116 3.1611621,3.1611621 0 0 1 -3.161164,-3.16116 3.1611621,3.1611621 0 0 1 3.161164,-3.16117 3.1611621,3.1611621 0 0 1 3.16116,3.16117 z m 3.17358,16.636992 a 6.3347416,6.3347411 0 0 1 -6.33474,6.33474 6.3347416,6.3347411 0 0 1 -6.334746,-6.33474 6.3347416,6.3347411 0 0 1 6.334746,-6.33474 6.3347416,6.3347411 0 0 1 6.33474,6.33474 z m 19.04779,0 A 25.382528,25.382528 0 0 1 100.39637,107.80627 25.382528,25.382528 0 0 1 75.013838,82.423739 25.382528,25.382528 0 0 1 100.39637,57.041207 25.382528,25.382528 0 0 1 125.7789,82.423739 Z" />
    <path
       id="path637"
       style="fill:none;stroke:#000000;stroke-width:0.0276761"
       inkscape:transform-center-x="1.9073487e-06"
       inkscape:transform-center-y="-16.636999"
       d="m 87.568875,126.36761 a 3.1611621,3.1611621 0 0 1 1.157066,4.31822 3.1611621,3.1611621 0 0 1 -4.318228,1.15707 3.1611621,3.1611621 0 0 1 -1.157065,-4.31823 3.1611621,3.1611621 0 0 1 4.318227,-1.15706 z m -3.161149,16.63698 a 3.1611621,3.1611621 0 0 1 4.318224,1.15707 3.1611621,3.1611621 0 0 1 -1.157062,4.31823 3.1611621,3.1611621 0 0 1 -4.31823,-1.15707 3.1611621,3.1611621 0 0 1 1.157068,-4.31823 z m 12.82748,11.05615 a 3.1611621,3.1611621 0 0 1 3.161164,-3.16116 3.1611621,3.1611621 0 0 1 3.16116,3.16116 3.1611621,3.1611621 0 0 1 -3.16117,3.16116 3.1611621,3.1611621 0 0 1 -3.161154,-3.16116 z m 15.988644,-5.58085 a 3.1611621,3.1611621 0 0 1 -1.15707,-4.31823 3.1611621,3.1611621 0 0 1 4.31823,-1.15707 3.1611621,3.1611621 0 0 1 1.15706,4.31823 3.1611621,3.1611621 0 0 1 -4.31822,1.15707 z m 3.16116,-16.637 a 3.1611621,3.1611621 0 0 1 -4.31823,-1.15707 3.1611621,3.1611621 0 0 1 1.15707,-4.31822 3.1611621,3.1611621 0 0 1 4.31823,1.15706 3.1611621,3.1611621 0 0 1 -1.15707,4.31823 z m -12.82748,-11.05614 a 3.1611621,3.1611621 0 0 1 -3.16116,3.16116 3.1611621,3.1611621 0 0 1 -3.161164,-3.16116 3.1611621,3.1611621 0 0 1 3.161164,-3.16117 3.1611621,3.1611621 0 0 1 3.16116,3.16117 z m 0,0 a 3.1611621,3.1611621 0 0 1 -3.16116,3.16116 3.1611621,3.1611621 0 0 1 -3.161164,-3.16116 3.1611621,3.1611621 0 0 1 3.161164,-3.16117 3.1611621,3.1611621 0 0 1 3.16116,3.16117 z m 3.17358,16.63699 a 6.3347416,6.3347411 0 0 1 -6.33474,6.33474 6.3347416,6.3347411 0 0 1 -6.334746,-6.33474 6.3347416,6.3347411 0 0 1 6.334746,-6.33474 6.3347416,6.3347411 0 0 1 6.33474,6.33474 z m 19.04779,0 a 25.382528,25.382528 0 0 1 -25.38253,25.38253 25.382528,25.382528 0 0 1 -25.382532,-25.38253 25.382528,25.382528 0 0 1 25.382532,-25.38253 25.382528,25.382528 0 0 1 25.38253,25.38253 z" />
    <path
       id="path639"
       style="fill:none;stroke:#000000;stroke-width:0.0276761"
       inkscape:transform-center-x="1.9073487e-06"
       inkscape:transform-center-y="-16.636999"
       d="m 142.56888,126.36761 a 3.1611621,3.1611621 0 0 1 1.15707,4.31822 3.1611621,3.1611621 0 0 1 -4.31823,1.15707 3.1611621,3.1611621 0 0 1 -1.15707,-4.31823 3.1611621,3.1611621 0 0 1 4.31823,-1.15706 z m -3.16115,16.63698 a 3.1611621,3.1611621 0 0 1 4.31823,1.15707 3.1611621,3.1611621 0 0 1 -1.15707,4.31823 3.1611621,3.1611621 0 0 1 -4.31823,-1.15707 3.1611621,3.1611621 0 0 1 1.15707,-4.31823 z m 12.82748,11.05615 a 3.1611621,3.1611621 0 0 1 3.16116,-3.16116 3.1611621,3.1611621 0 0 1 3.16116,3.16116 3.1611621,3.1611621 0 0 1 -3.16116,3.16116 3.1611621,3.1611621 0 0 1 -3.16116,-3.16116 z m 15.98864,-5.58085 a 3.1611621,3.1611621 0 0 1 -1.15707,-4.31823 3.1611621,3.1611621 0 0 1 4.31823,-1.15707 3.1611621,3.1611621 0 0 1 1.15707,4.31823 3.1611621,3.1611621 0 0 1 -4.31823,1.15707 z m 3.16116,-16.637 a 3.1611621,3.1611621 0 0 1 -4.31823,-1.15707 3.1611621,3.1611621 0 0 1 1.15707,-4.31822 3.1611621,3.1611621 0 0 1 4.31823,1.15706 3.1611621,3.1611621 0 0 1 -1.15707,4.31823 z m -12.82748,-11.05614 a 3.1611621,3.1611621 0 0 1 -3.16116,3.16116 3.1611621,3.1611621 0 0 1 -3.16116,-3.16116 3.1611621,3.1611621 0 0 1 3.16116,-3.16117 3.1611621,3.1611621 0 0 1 3.16116,3.16117 z m 0,0 a 3.1611621,3.1611621 0 0 1 -3.16116,3.16116 3.1611621,3.1611621 0 0 1 -3.16116,-3.16116 3.1611621,3.1611621 0 0 1 3.16116,-3.16117 3.1611621,3.1611621 0 0 1 3.16116,3.16117 z m 3.17358,16.63699 a 6.3347416,6.3347411 0 0 1 -6.33474,6.33474 6.3347416,6.3347411 0 0 1 -6.33474,-6.33474 6.3347416,6.3347411 0 0 1 6.33474,-6.33474 6.3347416,6.3347411 0 0 1 6.33474,6.33474 z m 19.04778,0 a 25.382528,25.382528 0 0 1 -25.38252,25.38253 25.382528,25.382528 0 0 1 -25.38253,-25.38253 25.382528,25.382528 0 0 1 25.38253,-25.38253 25.382528,25.382528 0 0 1 25.38252,25.38253 z" />
  </g>
</svg>
