  0
SECTION
  2
HEADER
  9
$ACADVER
  1
AC1014
  9
$HANDSEED
  5
FFFF
  9
$MEASUREMENT
 70
     1
  0
ENDSEC
  0
SECTION
  2
TABLES
  0
TABLE
  2
VPORT
  5
8
330
0
100
AcDbSymbolTable
 70
     4
  0
VPORT
  5
2E
330
8
100
AcDbSymbolTableRecord
100
AcDbViewportTableRecord
  2
*ACTIVE
 70
     0
 10
0.0
 20
0.0
 11
1.0
 21
1.0
 12
210.0
 22
148.5
 13
0.0
 23
0.0
 14
10.0
 24
10.0
 15
10.0
 25
10.0
 16
0.0
 26
0.0
 36
1.0
 17
0.0
 27
0.0
 37
0.0
 40
341.0
 41
1.24
 42
50.0
 43
0.0
 44
0.0
 50
0.0
 51
0.0
 71
     0
 72
   100
 73
     1
 74
     3
 75
     0
 76
     0
 77
     0
 78
     0
  0
ENDTAB
  0
TABLE
  2
LTYPE
  5
5
330
0
100
AcDbSymbolTable
 70
     1
  0
LTYPE
  5
14
330
5
100
AcDbSymbolTableRecord
100
AcDbLinetypeTableRecord
  2
BYBLOCK
 70
     0
  3

 72
    65
 73
     0
 40
0.0
  0
LTYPE
  5
15
330
5
100
AcDbSymbolTableRecord
100
AcDbLinetypeTableRecord
  2
BYLAYER
 70
     0
  3

 72
    65
 73
     0
 40
0.0
  0
LTYPE
  5
16
330
5
100
AcDbSymbolTableRecord
100
AcDbLinetypeTableRecord
  2
CONTINUOUS
 70
     0
  3
Solid line
 72
    65
 73
     0
 40
0.0
  0
ENDTAB
  0
TABLE
  2
LAYER
  5
2
100
AcDbSymbolTable
 70
2
  0
LAYER
  5
50
100
AcDbSymbolTableRecord
100
AcDbLayerTableRecord
  2
0
 70
0
  6
CONTINUOUS
  0
LAYER
  5
51
100
AcDbSymbolTableRecord
100
AcDbLayerTableRecord
  2
Layer_1
 70
0
  6
CONTINUOUS
  0
ENDTAB
  0
TABLE
  2
STYLE
  5
3
330
0
100
AcDbSymbolTable
 70
     1
  0
STYLE
  5
11
330
3
100
AcDbSymbolTableRecord
100
AcDbTextStyleTableRecord
  2
STANDARD
 70
     0
 40
0.0
 41
1.0
 50
0.0
 71
     0
 42
2.5
  3
txt
  4

  0
ENDTAB
  0
TABLE
  2
VIEW
  5
6
330
0
100
AcDbSymbolTable
 70
     0
  0
ENDTAB
  0
TABLE
  2
UCS
  5
7
330
0
100
AcDbSymbolTable
 70
     0
  0
ENDTAB
  0
TABLE
  2
APPID
  5
9
330
0
100
AcDbSymbolTable
 70
     2
  0
APPID
  5
12
330
9
100
AcDbSymbolTableRecord
100
AcDbRegAppTableRecord
  2
ACAD
 70
     0
  0
ENDTAB
  0
TABLE
  2
DIMSTYLE
  5
A
330
0
100
AcDbSymbolTable
 70
     1
  0
DIMSTYLE
105
27
330
A
100
AcDbSymbolTableRecord
100
AcDbDimStyleTableRecord
  2
ISO-25
 70
     0
  3

  4

  5

  6

  7

 40
1.0
 41
2.5
 42
0.625
 43
3.75
 44
1.25
 45
0.0
 46
0.0
 47
0.0
 48
0.0
140
2.5
141
2.5
142
0.0
143
0.03937007874016
144
1.0
145
0.0
146
1.0
147
0.625
 71
     0
 72
     0
 73
     0
 74
     0
 75
     0
 76
     0
 77
     1
 78
     8
170
     0
171
     3
172
     1
173
     0
174
     0
175
     0
176
     0
177
     0
178
     0
270
     2
271
     2
272
     2
273
     2
274
     3
340
11
275
     0
280
     0
281
     0
282
     0
283
     0
284
     8
285
     0
286
     0
287
     3
288
     0
  0
ENDTAB
  0
TABLE
  2
BLOCK_RECORD
  5
1
330
0
100
AcDbSymbolTable
 70
     1
  0
BLOCK_RECORD
  5
1F
330
1
100
AcDbSymbolTableRecord
100
AcDbBlockTableRecord
  2
*MODEL_SPACE
  0
BLOCK_RECORD
  5
1B
330
1
100
AcDbSymbolTableRecord
100
AcDbBlockTableRecord
  2
*PAPER_SPACE
  0
ENDTAB
  0
ENDSEC
  0
SECTION
  2
BLOCKS
  0
BLOCK
  5
20
330
1F
100
AcDbEntity
  8
0
100
AcDbBlockBegin
  2
*MODEL_SPACE
 70
     0
 10
0.0
 20
0.0
 30
0.0
  3
*MODEL_SPACE
  1

  0
ENDBLK
  5
21
330
1F
100
AcDbEntity
  8
0
100
AcDbBlockEnd
  0
BLOCK
  5
1C
330
1B
100
AcDbEntity
 67
     1
  8
0
100
AcDbBlockBegin
  2
*PAPER_SPACE
  1

  0
ENDBLK
  5
1D
330
1B
100
AcDbEntity
 67
     1
  8
0
100
AcDbBlockEnd
  0
ENDSEC
  0
SECTION
  2
ENTITIES
  0
SPLINE
  5
100
100
AcDbEntity
  8
Layer_1
 62
7
100
AcDbSpline
 70
8
 71
3
 72
8
 73
4
 74
0
 40
0
 40
0
 40
0
 40
0
 40
1
 40
1
 40
1
 40
1
 10
144.037500
 20
2591.962498
 30
0.0
 10
85.794937
 20
2591.962498
 30
0.0
 10
33.287313
 20
2556.878025
 30
0.0
 10
10.998849
 20
2503.068914
 30
0.0
  0
SPLINE
  5
101
100
AcDbEntity
  8
Layer_1
 62
7
100
AcDbSpline
 70
8
 71
3
 72
8
 73
4
 74
0
 40
0
 40
0
 40
0
 40
0
 40
1
 40
1
 40
1
 40
1
 10
10.998849
 20
2503.068914
 30
0.0
 10
-11.289614
 20
2449.259803
 30
0.0
 10
1.030414
 20
2387.322837
 30
0.0
 10
42.214125
 20
2346.139126
 30
0.0
  0
SPLINE
  5
102
100
AcDbEntity
  8
Layer_1
 62
7
100
AcDbSpline
 70
8
 71
3
 72
8
 73
4
 74
0
 40
0
 40
0
 40
0
 40
0
 40
1
 40
1
 40
1
 40
1
 10
42.214125
 20
2346.139126
 30
0.0
 10
83.397836
 20
2304.955415
 30
0.0
 10
145.334802
 20
2292.635387
 30
0.0
 10
199.143913
 20
2314.923850
 30
0.0
  0
SPLINE
  5
103
100
AcDbEntity
  8
Layer_1
 62
7
100
AcDbSpline
 70
8
 71
3
 72
8
 73
4
 74
0
 40
0
 40
0
 40
0
 40
0
 40
1
 40
1
 40
1
 40
1
 10
199.143913
 20
2314.923850
 30
0.0
 10
252.953024
 20
2337.212314
 30
0.0
 10
288.037497
 20
2389.719938
 30
0.0
 10
288.037497
 20
2447.962500
 30
0.0
  0
SPLINE
  5
104
100
AcDbEntity
  8
Layer_1
 62
7
100
AcDbSpline
 70
8
 71
3
 72
8
 73
4
 74
0
 40
0
 40
0
 40
0
 40
0
 40
1
 40
1
 40
1
 40
1
 10
288.037497
 20
2447.962500
 30
0.0
 10
288.037497
 20
2527.491503
 30
0.0
 10
223.566502
 20
2591.962498
 30
0.0
 10
144.037500
 20
2591.962498
 30
0.0
  0
SPLINE
  5
105
100
AcDbEntity
  8
Layer_1
 62
7
100
AcDbSpline
 70
8
 71
3
 72
8
 73
4
 74
0
 40
0
 40
0
 40
0
 40
0
 40
1
 40
1
 40
1
 40
1
 10
144.000009
 20
2476.740118
 30
0.0
 10
132.375712
 20
2476.740118
 30
0.0
 10
121.896019
 20
2469.737811
 30
0.0
 10
117.447594
 20
2458.998362
 30
0.0
  0
SPLINE
  5
106
100
AcDbEntity
  8
Layer_1
 62
7
100
AcDbSpline
 70
8
 71
3
 72
8
 73
4
 74
0
 40
0
 40
0
 40
0
 40
0
 40
1
 40
1
 40
1
 40
1
 10
117.447594
 20
2458.998362
 30
0.0
 10
112.999168
 20
2448.258913
 30
0.0
 10
115.458051
 20
2435.897272
 30
0.0
 10
123.677670
 20
2427.677653
 30
0.0
  0
SPLINE
  5
107
100
AcDbEntity
  8
Layer_1
 62
7
100
AcDbSpline
 70
8
 71
3
 72
8
 73
4
 74
0
 40
0
 40
0
 40
0
 40
0
 40
1
 40
1
 40
1
 40
1
 10
123.677670
 20
2427.677653
 30
0.0
 10
131.897289
 20
2419.458034
 30
0.0
 10
144.258930
 20
2416.999151
 30
0.0
 10
154.998379
 20
2421.447577
 30
0.0
  0
SPLINE
  5
108
100
AcDbEntity
  8
Layer_1
 62
7
100
AcDbSpline
 70
8
 71
3
 72
8
 73
4
 74
0
 40
0
 40
0
 40
0
 40
0
 40
1
 40
1
 40
1
 40
1
 10
154.998379
 20
2421.447577
 30
0.0
 10
165.737828
 20
2425.896002
 30
0.0
 10
172.740135
 20
2436.375695
 30
0.0
 10
172.740135
 20
2447.999991
 30
0.0
  0
SPLINE
  5
109
100
AcDbEntity
  8
Layer_1
 62
7
100
AcDbSpline
 70
8
 71
3
 72
8
 73
4
 74
0
 40
0
 40
0
 40
0
 40
0
 40
1
 40
1
 40
1
 40
1
 10
172.740135
 20
2447.999991
 30
0.0
 10
172.740135
 20
2455.622347
 30
0.0
 10
169.712166
 20
2462.932511
 30
0.0
 10
164.322347
 20
2468.322330
 30
0.0
  0
SPLINE
  5
10a
100
AcDbEntity
  8
Layer_1
 62
7
100
AcDbSpline
 70
8
 71
3
 72
8
 73
4
 74
0
 40
0
 40
0
 40
0
 40
0
 40
1
 40
1
 40
1
 40
1
 10
164.322347
 20
2468.322330
 30
0.0
 10
158.932528
 20
2473.712149
 30
0.0
 10
151.622364
 20
2476.740118
 30
0.0
 10
144.000009
 20
2476.740118
 30
0.0
  0
LWPOLYLINE
  5
10b
100
AcDbEntity
  8
Layer_1
 62
7
100
AcDbPolyline
 90
1
 70
1
 10
144.037500
 20
2591.962498
 30
0.0
  0
SPLINE
  5
10c
100
AcDbEntity
  8
Layer_1
 62
7
100
AcDbSpline
 70
8
 71
3
 72
8
 73
4
 74
0
 40
0
 40
0
 40
0
 40
0
 40
1
 40
1
 40
1
 40
1
 10
144.037500
 20
2552.362500
 30
0.0
 10
136.757179
 20
2552.362500
 30
0.0
 10
130.193726
 20
2547.976941
 30
0.0
 10
127.407668
 20
2541.250802
 30
0.0
  0
SPLINE
  5
10d
100
AcDbEntity
  8
Layer_1
 62
7
100
AcDbSpline
 70
8
 71
3
 72
8
 73
4
 74
0
 40
0
 40
0
 40
0
 40
0
 40
1
 40
1
 40
1
 40
1
 10
127.407668
 20
2541.250802
 30
0.0
 10
124.621610
 20
2534.524663
 30
0.0
 10
126.161614
 20
2526.782542
 30
0.0
 10
131.309578
 20
2521.634579
 30
0.0
  0
SPLINE
  5
10e
100
AcDbEntity
  8
Layer_1
 62
7
100
AcDbSpline
 70
8
 71
3
 72
8
 73
4
 74
0
 40
0
 40
0
 40
0
 40
0
 40
1
 40
1
 40
1
 40
1
 10
131.309578
 20
2521.634579
 30
0.0
 10
136.457542
 20
2516.486615
 30
0.0
 10
144.199662
 20
2514.946611
 30
0.0
 10
150.925801
 20
2517.732669
 30
0.0
  0
SPLINE
  5
10f
100
AcDbEntity
  8
Layer_1
 62
7
100
AcDbSpline
 70
8
 71
3
 72
8
 73
4
 74
0
 40
0
 40
0
 40
0
 40
0
 40
1
 40
1
 40
1
 40
1
 10
150.925801
 20
2517.732669
 30
0.0
 10
157.651940
 20
2520.518727
 30
0.0
 10
162.037499
 20
2527.082180
 30
0.0
 10
162.037499
 20
2534.362500
 30
0.0
  0
SPLINE
  5
110
100
AcDbEntity
  8
Layer_1
 62
7
100
AcDbSpline
 70
8
 71
3
 72
8
 73
4
 74
0
 40
0
 40
0
 40
0
 40
0
 40
1
 40
1
 40
1
 40
1
 10
162.037499
 20
2534.362500
 30
0.0
 10
162.037499
 20
2539.136397
 30
0.0
 10
160.141076
 20
2543.714768
 30
0.0
 10
156.765421
 20
2547.090422
 30
0.0
  0
SPLINE
  5
111
100
AcDbEntity
  8
Layer_1
 62
7
100
AcDbSpline
 70
8
 71
3
 72
8
 73
4
 74
0
 40
0
 40
0
 40
0
 40
0
 40
1
 40
1
 40
1
 40
1
 10
156.765421
 20
2547.090422
 30
0.0
 10
153.389767
 20
2550.466077
 30
0.0
 10
148.811396
 20
2552.362500
 30
0.0
 10
144.037500
 20
2552.362500
 30
0.0
  0
LWPOLYLINE
  5
112
100
AcDbEntity
  8
Layer_1
 62
7
100
AcDbPolyline
 90
1
 70
1
 10
144.000009
 20
2476.740118
 30
0.0
  0
SPLINE
  5
113
100
AcDbEntity
  8
Layer_1
 62
7
100
AcDbSpline
 70
8
 71
3
 72
8
 73
4
 74
0
 40
0
 40
0
 40
0
 40
0
 40
1
 40
1
 40
1
 40
1
 10
144.037500
 20
2552.362500
 30
0.0
 10
136.757179
 20
2552.362500
 30
0.0
 10
130.193726
 20
2547.976941
 30
0.0
 10
127.407668
 20
2541.250802
 30
0.0
  0
SPLINE
  5
114
100
AcDbEntity
  8
Layer_1
 62
7
100
AcDbSpline
 70
8
 71
3
 72
8
 73
4
 74
0
 40
0
 40
0
 40
0
 40
0
 40
1
 40
1
 40
1
 40
1
 10
127.407668
 20
2541.250802
 30
0.0
 10
124.621610
 20
2534.524663
 30
0.0
 10
126.161614
 20
2526.782542
 30
0.0
 10
131.309578
 20
2521.634579
 30
0.0
  0
SPLINE
  5
115
100
AcDbEntity
  8
Layer_1
 62
7
100
AcDbSpline
 70
8
 71
3
 72
8
 73
4
 74
0
 40
0
 40
0
 40
0
 40
0
 40
1
 40
1
 40
1
 40
1
 10
131.309578
 20
2521.634579
 30
0.0
 10
136.457542
 20
2516.486615
 30
0.0
 10
144.199662
 20
2514.946611
 30
0.0
 10
150.925801
 20
2517.732669
 30
0.0
  0
SPLINE
  5
116
100
AcDbEntity
  8
Layer_1
 62
7
100
AcDbSpline
 70
8
 71
3
 72
8
 73
4
 74
0
 40
0
 40
0
 40
0
 40
0
 40
1
 40
1
 40
1
 40
1
 10
150.925801
 20
2517.732669
 30
0.0
 10
157.651940
 20
2520.518727
 30
0.0
 10
162.037499
 20
2527.082180
 30
0.0
 10
162.037499
 20
2534.362500
 30
0.0
  0
SPLINE
  5
117
100
AcDbEntity
  8
Layer_1
 62
7
100
AcDbSpline
 70
8
 71
3
 72
8
 73
4
 74
0
 40
0
 40
0
 40
0
 40
0
 40
1
 40
1
 40
1
 40
1
 10
162.037499
 20
2534.362500
 30
0.0
 10
162.037499
 20
2539.136397
 30
0.0
 10
160.141076
 20
2543.714768
 30
0.0
 10
156.765421
 20
2547.090422
 30
0.0
  0
SPLINE
  5
118
100
AcDbEntity
  8
Layer_1
 62
7
100
AcDbSpline
 70
8
 71
3
 72
8
 73
4
 74
0
 40
0
 40
0
 40
0
 40
0
 40
1
 40
1
 40
1
 40
1
 10
156.765421
 20
2547.090422
 30
0.0
 10
153.389767
 20
2550.466077
 30
0.0
 10
148.811396
 20
2552.362500
 30
0.0
 10
144.037500
 20
2552.362500
 30
0.0
  0
SPLINE
  5
119
100
AcDbEntity
  8
Layer_1
 62
7
100
AcDbSpline
 70
8
 71
3
 72
8
 73
4
 74
0
 40
0
 40
0
 40
0
 40
0
 40
1
 40
1
 40
1
 40
1
 10
144.037500
 20
2552.362500
 30
0.0
 10
136.757179
 20
2552.362500
 30
0.0
 10
130.193726
 20
2547.976941
 30
0.0
 10
127.407668
 20
2541.250802
 30
0.0
  0
SPLINE
  5
11a
100
AcDbEntity
  8
Layer_1
 62
7
100
AcDbSpline
 70
8
 71
3
 72
8
 73
4
 74
0
 40
0
 40
0
 40
0
 40
0
 40
1
 40
1
 40
1
 40
1
 10
127.407668
 20
2541.250802
 30
0.0
 10
124.621610
 20
2534.524663
 30
0.0
 10
126.161614
 20
2526.782542
 30
0.0
 10
131.309578
 20
2521.634579
 30
0.0
  0
SPLINE
  5
11b
100
AcDbEntity
  8
Layer_1
 62
7
100
AcDbSpline
 70
8
 71
3
 72
8
 73
4
 74
0
 40
0
 40
0
 40
0
 40
0
 40
1
 40
1
 40
1
 40
1
 10
131.309578
 20
2521.634579
 30
0.0
 10
136.457542
 20
2516.486615
 30
0.0
 10
144.199662
 20
2514.946611
 30
0.0
 10
150.925801
 20
2517.732669
 30
0.0
  0
SPLINE
  5
11c
100
AcDbEntity
  8
Layer_1
 62
7
100
AcDbSpline
 70
8
 71
3
 72
8
 73
4
 74
0
 40
0
 40
0
 40
0
 40
0
 40
1
 40
1
 40
1
 40
1
 10
150.925801
 20
2517.732669
 30
0.0
 10
157.651940
 20
2520.518727
 30
0.0
 10
162.037499
 20
2527.082180
 30
0.0
 10
162.037499
 20
2534.362500
 30
0.0
  0
SPLINE
  5
11d
100
AcDbEntity
  8
Layer_1
 62
7
100
AcDbSpline
 70
8
 71
3
 72
8
 73
4
 74
0
 40
0
 40
0
 40
0
 40
0
 40
1
 40
1
 40
1
 40
1
 10
162.037499
 20
2534.362500
 30
0.0
 10
162.037499
 20
2539.136397
 30
0.0
 10
160.141076
 20
2543.714768
 30
0.0
 10
156.765421
 20
2547.090422
 30
0.0
  0
SPLINE
  5
11e
100
AcDbEntity
  8
Layer_1
 62
7
100
AcDbSpline
 70
8
 71
3
 72
8
 73
4
 74
0
 40
0
 40
0
 40
0
 40
0
 40
1
 40
1
 40
1
 40
1
 10
156.765421
 20
2547.090422
 30
0.0
 10
153.389767
 20
2550.466077
 30
0.0
 10
148.811396
 20
2552.362500
 30
0.0
 10
144.037500
 20
2552.362500
 30
0.0
  0
SPLINE
  5
11f
100
AcDbEntity
  8
Layer_1
 62
7
100
AcDbSpline
 70
8
 71
3
 72
8
 73
4
 74
0
 40
0
 40
0
 40
0
 40
0
 40
1
 40
1
 40
1
 40
1
 10
234.621038
 20
2500.031505
 30
0.0
 10
230.980878
 20
2506.336445
 30
0.0
 10
223.901148
 20
2509.827780
 30
0.0
 10
216.683114
 20
2508.877506
 30
0.0
  0
SPLINE
  5
120
100
AcDbEntity
  8
Layer_1
 62
7
100
AcDbSpline
 70
8
 71
3
 72
8
 73
4
 74
0
 40
0
 40
0
 40
0
 40
0
 40
1
 40
1
 40
1
 40
1
 10
216.683114
 20
2508.877506
 30
0.0
 10
209.465081
 20
2507.927232
 30
0.0
 10
203.530213
 20
2502.722490
 30
0.0
 10
201.645929
 20
2495.690243
 30
0.0
  0
SPLINE
  5
121
100
AcDbEntity
  8
Layer_1
 62
7
100
AcDbSpline
 70
8
 71
3
 72
8
 73
4
 74
0
 40
0
 40
0
 40
0
 40
0
 40
1
 40
1
 40
1
 40
1
 10
201.645929
 20
2495.690243
 30
0.0
 10
199.761646
 20
2488.657996
 30
0.0
 10
202.299024
 20
2481.183124
 30
0.0
 10
208.074890
 20
2476.751148
 30
0.0
  0
SPLINE
  5
122
100
AcDbEntity
  8
Layer_1
 62
7
100
AcDbSpline
 70
8
 71
3
 72
8
 73
4
 74
0
 40
0
 40
0
 40
0
 40
0
 40
1
 40
1
 40
1
 40
1
 10
208.074890
 20
2476.751148
 30
0.0
 10
213.850755
 20
2472.319173
 30
0.0
 10
221.727649
 20
2471.802896
 30
0.0
 10
228.032588
 20
2475.443056
 30
0.0
  0
SPLINE
  5
123
100
AcDbEntity
  8
Layer_1
 62
7
100
AcDbSpline
 70
8
 71
3
 72
8
 73
4
 74
0
 40
0
 40
0
 40
0
 40
0
 40
1
 40
1
 40
1
 40
1
 10
228.032588
 20
2475.443056
 30
0.0
 10
232.166902
 20
2477.830004
 30
0.0
 10
235.183674
 20
2481.761539
 30
0.0
 10
236.419248
 20
2486.372768
 30
0.0
  0
SPLINE
  5
124
100
AcDbEntity
  8
Layer_1
 62
7
100
AcDbSpline
 70
8
 71
3
 72
8
 73
4
 74
0
 40
0
 40
0
 40
0
 40
0
 40
1
 40
1
 40
1
 40
1
 10
236.419248
 20
2486.372768
 30
0.0
 10
237.654822
 20
2490.983997
 30
0.0
 10
237.007987
 20
2495.897191
 30
0.0
 10
234.621038
 20
2500.031505
 30
0.0
  0
LWPOLYLINE
  5
125
100
AcDbEntity
  8
Layer_1
 62
7
100
AcDbPolyline
 90
3
 70
1
 10
144.037500
 20
2552.362500
 30
0.0
 10
144.037500
 20
2552.362500
 30
0.0
 10
144.037500
 20
2552.362500
 30
0.0
  0
SPLINE
  5
126
100
AcDbEntity
  8
Layer_1
 62
7
100
AcDbSpline
 70
8
 71
3
 72
8
 73
4
 74
0
 40
0
 40
0
 40
0
 40
0
 40
1
 40
1
 40
1
 40
1
 10
234.591192
 20
2395.418422
 30
0.0
 10
238.231352
 20
2401.723362
 30
0.0
 10
237.715075
 20
2409.600256
 30
0.0
 10
233.283100
 20
2415.376121
 30
0.0
  0
SPLINE
  5
127
100
AcDbEntity
  8
Layer_1
 62
7
100
AcDbSpline
 70
8
 71
3
 72
8
 73
4
 74
0
 40
0
 40
0
 40
0
 40
0
 40
1
 40
1
 40
1
 40
1
 10
233.283100
 20
2415.376121
 30
0.0
 10
228.851124
 20
2421.151986
 30
0.0
 10
221.376252
 20
2423.689365
 30
0.0
 10
214.344005
 20
2421.805082
 30
0.0
  0
SPLINE
  5
128
100
AcDbEntity
  8
Layer_1
 62
7
100
AcDbSpline
 70
8
 71
3
 72
8
 73
4
 74
0
 40
0
 40
0
 40
0
 40
0
 40
1
 40
1
 40
1
 40
1
 10
214.344005
 20
2421.805082
 30
0.0
 10
207.311758
 20
2419.920798
 30
0.0
 10
202.107016
 20
2413.985930
 30
0.0
 10
201.156742
 20
2406.767896
 30
0.0
  0
SPLINE
  5
129
100
AcDbEntity
  8
Layer_1
 62
7
100
AcDbSpline
 70
8
 71
3
 72
8
 73
4
 74
0
 40
0
 40
0
 40
0
 40
0
 40
1
 40
1
 40
1
 40
1
 10
201.156742
 20
2406.767896
 30
0.0
 10
200.206468
 20
2399.549863
 30
0.0
 10
203.697803
 20
2392.470133
 30
0.0
 10
210.002743
 20
2388.829973
 30
0.0
  0
SPLINE
  5
12a
100
AcDbEntity
  8
Layer_1
 62
7
100
AcDbSpline
 70
8
 71
3
 72
8
 73
4
 74
0
 40
0
 40
0
 40
0
 40
0
 40
1
 40
1
 40
1
 40
1
 10
210.002743
 20
2388.829973
 30
0.0
 10
214.137057
 20
2386.443024
 30
0.0
 10
219.050251
 20
2385.796189
 30
0.0
 10
223.661480
 20
2387.031763
 30
0.0
  0
SPLINE
  5
12b
100
AcDbEntity
  8
Layer_1
 62
7
100
AcDbSpline
 70
8
 71
3
 72
8
 73
4
 74
0
 40
0
 40
0
 40
0
 40
0
 40
1
 40
1
 40
1
 40
1
 10
223.661480
 20
2387.031763
 30
0.0
 10
228.272709
 20
2388.267337
 30
0.0
 10
232.204244
 20
2391.284108
 30
0.0
 10
234.591192
 20
2395.418422
 30
0.0
  0
LWPOLYLINE
  5
12c
100
AcDbEntity
  8
Layer_1
 62
7
100
AcDbPolyline
 90
1
 70
1
 10
234.621038
 20
2500.031505
 30
0.0
  0
SPLINE
  5
12d
100
AcDbEntity
  8
Layer_1
 62
7
100
AcDbSpline
 70
8
 71
3
 72
8
 73
4
 74
0
 40
0
 40
0
 40
0
 40
0
 40
1
 40
1
 40
1
 40
1
 10
143.979508
 20
2343.135768
 30
0.0
 10
151.259829
 20
2343.135768
 30
0.0
 10
157.823282
 20
2347.521327
 30
0.0
 10
160.609340
 20
2354.247466
 30
0.0
  0
SPLINE
  5
12e
100
AcDbEntity
  8
Layer_1
 62
7
100
AcDbSpline
 70
8
 71
3
 72
8
 73
4
 74
0
 40
0
 40
0
 40
0
 40
0
 40
1
 40
1
 40
1
 40
1
 10
160.609340
 20
2354.247466
 30
0.0
 10
163.395398
 20
2360.973604
 30
0.0
 10
161.855394
 20
2368.715725
 30
0.0
 10
156.707430
 20
2373.863689
 30
0.0
  0
SPLINE
  5
12f
100
AcDbEntity
  8
Layer_1
 62
7
100
AcDbSpline
 70
8
 71
3
 72
8
 73
4
 74
0
 40
0
 40
0
 40
0
 40
0
 40
1
 40
1
 40
1
 40
1
 10
156.707430
 20
2373.863689
 30
0.0
 10
151.559466
 20
2379.011653
 30
0.0
 10
143.817346
 20
2380.551657
 30
0.0
 10
137.091207
 20
2377.765599
 30
0.0
  0
SPLINE
  5
130
100
AcDbEntity
  8
Layer_1
 62
7
100
AcDbSpline
 70
8
 71
3
 72
8
 73
4
 74
0
 40
0
 40
0
 40
0
 40
0
 40
1
 40
1
 40
1
 40
1
 10
137.091207
 20
2377.765599
 30
0.0
 10
130.365068
 20
2374.979541
 30
0.0
 10
125.979509
 20
2368.416088
 30
0.0
 10
125.979509
 20
2361.135767
 30
0.0
  0
SPLINE
  5
131
100
AcDbEntity
  8
Layer_1
 62
7
100
AcDbSpline
 70
8
 71
3
 72
8
 73
4
 74
0
 40
0
 40
0
 40
0
 40
0
 40
1
 40
1
 40
1
 40
1
 10
125.979509
 20
2361.135767
 30
0.0
 10
125.979509
 20
2356.361871
 30
0.0
 10
127.875932
 20
2351.783500
 30
0.0
 10
131.251586
 20
2348.407845
 30
0.0
  0
SPLINE
  5
132
100
AcDbEntity
  8
Layer_1
 62
7
100
AcDbSpline
 70
8
 71
3
 72
8
 73
4
 74
0
 40
0
 40
0
 40
0
 40
0
 40
1
 40
1
 40
1
 40
1
 10
131.251586
 20
2348.407845
 30
0.0
 10
134.627241
 20
2345.032191
 30
0.0
 10
139.205612
 20
2343.135768
 30
0.0
 10
143.979508
 20
2343.135768
 30
0.0
  0
LWPOLYLINE
  5
133
100
AcDbEntity
  8
Layer_1
 62
7
100
AcDbPolyline
 90
1
 70
1
 10
234.591192
 20
2395.418422
 30
0.0
  0
SPLINE
  5
134
100
AcDbEntity
  8
Layer_1
 62
7
100
AcDbSpline
 70
8
 71
3
 72
8
 73
4
 74
0
 40
0
 40
0
 40
0
 40
0
 40
1
 40
1
 40
1
 40
1
 10
53.397387
 20
2395.465912
 30
0.0
 10
57.037547
 20
2389.160973
 30
0.0
 10
64.117277
 20
2385.669638
 30
0.0
 10
71.335311
 20
2386.619911
 30
0.0
  0
SPLINE
  5
135
100
AcDbEntity
  8
Layer_1
 62
7
100
AcDbSpline
 70
8
 71
3
 72
8
 73
4
 74
0
 40
0
 40
0
 40
0
 40
0
 40
1
 40
1
 40
1
 40
1
 10
71.335311
 20
2386.619911
 30
0.0
 10
78.553344
 20
2387.570185
 30
0.0
 10
84.488213
 20
2392.774927
 30
0.0
 10
86.372496
 20
2399.807174
 30
0.0
  0
SPLINE
  5
136
100
AcDbEntity
  8
Layer_1
 62
7
100
AcDbSpline
 70
8
 71
3
 72
8
 73
4
 74
0
 40
0
 40
0
 40
0
 40
0
 40
1
 40
1
 40
1
 40
1
 10
86.372496
 20
2399.807174
 30
0.0
 10
88.256780
 20
2406.839422
 30
0.0
 10
85.719401
 20
2414.314294
 30
0.0
 10
79.943535
 20
2418.746269
 30
0.0
  0
SPLINE
  5
137
100
AcDbEntity
  8
Layer_1
 62
7
100
AcDbSpline
 70
8
 71
3
 72
8
 73
4
 74
0
 40
0
 40
0
 40
0
 40
0
 40
1
 40
1
 40
1
 40
1
 10
79.943535
 20
2418.746269
 30
0.0
 10
74.167670
 20
2423.178244
 30
0.0
 10
66.290776
 20
2423.694522
 30
0.0
 10
59.985837
 20
2420.054362
 30
0.0
  0
SPLINE
  5
138
100
AcDbEntity
  8
Layer_1
 62
7
100
AcDbSpline
 70
8
 71
3
 72
8
 73
4
 74
0
 40
0
 40
0
 40
0
 40
0
 40
1
 40
1
 40
1
 40
1
 10
59.985837
 20
2420.054362
 30
0.0
 10
55.851523
 20
2417.667413
 30
0.0
 10
52.834751
 20
2413.735878
 30
0.0
 10
51.599177
 20
2409.124650
 30
0.0
  0
SPLINE
  5
139
100
AcDbEntity
  8
Layer_1
 62
7
100
AcDbSpline
 70
8
 71
3
 72
8
 73
4
 74
0
 40
0
 40
0
 40
0
 40
0
 40
1
 40
1
 40
1
 40
1
 10
51.599177
 20
2409.124650
 30
0.0
 10
50.363603
 20
2404.513421
 30
0.0
 10
51.010439
 20
2399.600226
 30
0.0
 10
53.397387
 20
2395.465912
 30
0.0
  0
LWPOLYLINE
  5
13a
100
AcDbEntity
  8
Layer_1
 62
7
100
AcDbPolyline
 90
1
 70
1
 10
143.979508
 20
2343.135768
 30
0.0
  0
SPLINE
  5
13b
100
AcDbEntity
  8
Layer_1
 62
7
100
AcDbSpline
 70
8
 71
3
 72
8
 73
4
 74
0
 40
0
 40
0
 40
0
 40
0
 40
1
 40
1
 40
1
 40
1
 10
53.425816
 20
2500.080412
 30
0.0
 10
49.785655
 20
2493.775473
 30
0.0
 10
50.301933
 20
2485.898579
 30
0.0
 10
54.733908
 20
2480.122714
 30
0.0
  0
SPLINE
  5
13c
100
AcDbEntity
  8
Layer_1
 62
7
100
AcDbSpline
 70
8
 71
3
 72
8
 73
4
 74
0
 40
0
 40
0
 40
0
 40
0
 40
1
 40
1
 40
1
 40
1
 10
54.733908
 20
2480.122714
 30
0.0
 10
59.165884
 20
2474.346848
 30
0.0
 10
66.640756
 20
2471.809469
 30
0.0
 10
73.673003
 20
2473.693753
 30
0.0
  0
SPLINE
  5
13d
100
AcDbEntity
  8
Layer_1
 62
7
100
AcDbSpline
 70
8
 71
3
 72
8
 73
4
 74
0
 40
0
 40
0
 40
0
 40
0
 40
1
 40
1
 40
1
 40
1
 10
73.673003
 20
2473.693753
 30
0.0
 10
80.705250
 20
2475.578036
 30
0.0
 10
85.909992
 20
2481.512905
 30
0.0
 10
86.860266
 20
2488.730938
 30
0.0
  0
SPLINE
  5
13e
100
AcDbEntity
  8
Layer_1
 62
7
100
AcDbSpline
 70
8
 71
3
 72
8
 73
4
 74
0
 40
0
 40
0
 40
0
 40
0
 40
1
 40
1
 40
1
 40
1
 10
86.860266
 20
2488.730938
 30
0.0
 10
87.810539
 20
2495.948972
 30
0.0
 10
84.319205
 20
2503.028702
 30
0.0
 10
78.014265
 20
2506.668862
 30
0.0
  0
SPLINE
  5
13f
100
AcDbEntity
  8
Layer_1
 62
7
100
AcDbSpline
 70
8
 71
3
 72
8
 73
4
 74
0
 40
0
 40
0
 40
0
 40
0
 40
1
 40
1
 40
1
 40
1
 10
78.014265
 20
2506.668862
 30
0.0
 10
73.879951
 20
2509.055811
 30
0.0
 10
68.966756
 20
2509.702646
 30
0.0
 10
64.355528
 20
2508.467072
 30
0.0
  0
SPLINE
  5
140
100
AcDbEntity
  8
Layer_1
 62
7
100
AcDbSpline
 70
8
 71
3
 72
8
 73
4
 74
0
 40
0
 40
0
 40
0
 40
0
 40
1
 40
1
 40
1
 40
1
 10
64.355528
 20
2508.467072
 30
0.0
 10
59.744299
 20
2507.231498
 30
0.0
 10
55.812764
 20
2504.214726
 30
0.0
 10
53.425816
 20
2500.080412
 30
0.0
  0
LWPOLYLINE
  5
141
100
AcDbEntity
  8
Layer_1
 62
7
100
AcDbPolyline
 90
1
 70
1
 10
53.397387
 20
2395.465912
 30
0.0
  0
LWPOLYLINE
  5
142
100
AcDbEntity
  8
Layer_1
 62
7
100
AcDbPolyline
 90
1
 70
1
 10
53.425816
 20
2500.080412
 30
0.0
  0
ENDSEC
  0
SECTION
  2
OBJECTS
  0
DICTIONARY
  5
C
330
0
100
AcDbDictionary
  3
ACAD_GROUP
350
D
  3
ACAD_MLINESTYLE
350
17
  0
DICTIONARY
  5
D
330
C
100
AcDbDictionary
  0
DICTIONARY
  5
1A
330
C
100
AcDbDictionary
  0
DICTIONARY
  5
17
330
C
100
AcDbDictionary
  3
STANDARD
350
18
  0
DICTIONARY
  5
19
330
C
100
AcDbDictionary
  0
ENDSEC
  0
EOF
