<?xml version="1.0" encoding="UTF-8" standalone="no"?>
<svg
   xmlns:dc="http://purl.org/dc/elements/1.1/"
   xmlns:cc="http://creativecommons.org/ns#"
   xmlns:rdf="http://www.w3.org/1999/02/22-rdf-syntax-ns#"
   xmlns:svg="http://www.w3.org/2000/svg"
   xmlns="http://www.w3.org/2000/svg"
   xmlns:sodipodi="http://sodipodi.sourceforge.net/DTD/sodipodi-0.dtd"
   xmlns:inkscape="http://www.inkscape.org/namespaces/inkscape"
   width="12in"
   height="12in"
   viewBox="0 0 304.8 304.80001"
   version="1.1"
   id="svg8"
   inkscape:version="1.0.2 (1.0.2+r75+1)"
   sodipodi:docname="inner_narrow.svg">
  <defs
     id="defs2" />
  <sodipodi:namedview
     id="base"
     pagecolor="#ffffff"
     bordercolor="#666666"
     borderopacity="1.0"
     inkscape:pageopacity="0.0"
     inkscape:pageshadow="2"
     inkscape:zoom="2"
     inkscape:cx="221.30133"
     inkscape:cy="178.71794"
     inkscape:document-units="in"
     inkscape:current-layer="layer1"
     inkscape:document-rotation="0"
     showgrid="false"
     units="in"
     inkscape:window-width="2488"
     inkscape:window-height="1376"
     inkscape:window-x="72"
     inkscape:window-y="27"
     inkscape:window-maximized="1"
     inkscape:snap-center="true" />
  <metadata
     id="metadata5">
    <rdf:RDF>
      <cc:Work
         rdf:about="">
        <dc:format>image/svg+xml</dc:format>
        <dc:type
           rdf:resource="http://purl.org/dc/dcmitype/StillImage" />
        <dc:title></dc:title>
      </cc:Work>
    </rdf:RDF>
  </metadata>
  <g
     inkscape:label="Layer 1"
     inkscape:groupmode="layer"
     id="layer1">
    <circle
       style="fill:none;stroke:#000000;stroke-width:0.0349437"
       id="path10"
       cx="25.4"
       cy="25.4"
       r="25.382528" />
    <path
       id="path30"
       style="fill:none;stroke:#000000;stroke-width:0.0305176"
       d="m 25.408525,5.6032589 a 3.1611621,3.1611621 0 0 0 -3.161048,3.161047 3.1611621,3.1611621 0 0 0 0.837676,2.1435381 v 8.600509 a 6.3347416,6.3347411 0 0 0 -1.578197,0.902271 l -7.497735,-4.328418 a 3.1611621,3.1611621 0 0 0 -1.445907,-1.823661 3.1611621,3.1611621 0 0 0 -4.3180826,1.157035 3.1611621,3.1611621 0 0 0 1.1570354,4.318083 3.1611621,3.1611621 0 0 0 2.2127852,0.359668 l -0.01189,0.02015 7.540108,4.35374 a 6.3347416,6.3347411 0 0 0 -0.06925,0.93431 6.3347416,6.3347411 0 0 0 0.06201,0.883666 l -7.399032,4.271576 a 3.1611621,3.1611621 0 0 0 -2.4189737,0.310057 3.1611621,3.1611621 0 0 0 -1.1570354,4.318601 3.1611621,3.1611621 0 0 0 4.3180831,1.157034 3.1611621,3.1611621 0 0 0 1.405599,-1.700671 l 0.04134,0.07183 7.540108,-4.353221 a 6.3347416,6.3347411 0 0 0 1.570964,0.915189 v 8.433078 a 3.1630758,3.1630761 0 0 0 -0.969449,2.27893 3.1630758,3.1630761 0 0 0 3.163112,3.163115 3.1630758,3.1630761 0 0 0 3.163115,-3.163115 3.1630758,3.1630761 0 0 0 -0.661974,-1.9358 v -8.757087 a 6.3347416,6.3347411 0 0 0 1.578197,-0.902272 l 7.315833,4.223515 a 3.1611621,3.1611621 0 0 0 1.459343,1.872237 3.1611621,3.1611621 0 0 0 4.318083,-1.157034 3.1611621,3.1611621 0 0 0 -1.157034,-4.318084 3.1611621,3.1611621 0 0 0 -2.123903,-0.376204 l -7.44864,-4.301029 a 6.3347416,6.3347411 0 0 0 0.06925,-0.93431 6.3347416,6.3347411 0 0 0 -0.06201,-0.883666 l 7.418152,-4.282943 a 3.1611621,3.1611621 0 0 0 2.231387,-0.355535 3.1611621,3.1611621 0 0 0 1.157036,-4.318083 3.1611621,3.1611621 0 0 0 -4.318082,-1.157035 3.1611621,3.1611621 0 0 0 -1.429372,1.772502 l -7.389207,4.265891 a 6.3347416,6.3347411 0 0 0 -1.570963,-0.915189 v -8.672856 a 3.1611621,3.1611621 0 0 0 0.789617,-2.0903121 3.1611621,3.1611621 0 0 0 -3.161049,-3.161047 z" />
  </g>
</svg>
