<?xml version="1.0" encoding="UTF-8" standalone="no"?>
<svg
   xmlns:dc="http://purl.org/dc/elements/1.1/"
   xmlns:cc="http://creativecommons.org/ns#"
   xmlns:rdf="http://www.w3.org/1999/02/22-rdf-syntax-ns#"
   xmlns:svg="http://www.w3.org/2000/svg"
   xmlns="http://www.w3.org/2000/svg"
   xmlns:xlink="http://www.w3.org/1999/xlink"
   xmlns:sodipodi="http://sodipodi.sourceforge.net/DTD/sodipodi-0.dtd"
   xmlns:inkscape="http://www.inkscape.org/namespaces/inkscape"
   width="12in"
   height="12in"
   viewBox="0 0 304.8 304.80001"
   version="1.1"
   id="svg8"
   inkscape:version="1.0.2 (1.0.2+r75+1)"
   sodipodi:docname="inner_wide.svg">
  <defs
     id="defs2" />
  <sodipodi:namedview
     id="base"
     pagecolor="#ffffff"
     bordercolor="#666666"
     borderopacity="1.0"
     inkscape:pageopacity="0.0"
     inkscape:pageshadow="2"
     inkscape:zoom="4"
     inkscape:cx="138.03618"
     inkscape:cy="160.32239"
     inkscape:document-units="in"
     inkscape:current-layer="layer1"
     inkscape:document-rotation="0"
     showgrid="false"
     units="in"
     inkscape:window-width="2488"
     inkscape:window-height="1376"
     inkscape:window-x="72"
     inkscape:window-y="27"
     inkscape:window-maximized="1"
     inkscape:snap-center="true" />
  <metadata
     id="metadata5">
    <rdf:RDF>
      <cc:Work
         rdf:about="">
        <dc:format>image/svg+xml</dc:format>
        <dc:type
           rdf:resource="http://purl.org/dc/dcmitype/StillImage" />
        <dc:title></dc:title>
      </cc:Work>
    </rdf:RDF>
  </metadata>
  <g
     inkscape:label="Layer 1"
     inkscape:groupmode="layer"
     id="layer1">
    <circle
       style="fill:none;stroke:#000000;stroke-width:0.0436796"
       id="path10"
       cx="31.75"
       cy="31.75"
       r="31.728161" />
    <path
       id="path30"
       style="fill:none;stroke:#000000;stroke-width:0.115342"
       d="M 120 45.171875 A 11.947699 11.947699 0 0 0 108.05273 57.119141 A 11.947699 11.947699 0 0 0 111.21875 65.220703 L 111.21875 97.726562 A 23.94233 23.942328 0 0 0 105.25391 101.13672 L 76.916016 84.777344 A 11.947699 11.947699 0 0 0 71.451172 77.884766 A 11.947699 11.947699 0 0 0 55.130859 82.257812 A 11.947699 11.947699 0 0 0 59.503906 98.578125 A 11.947699 11.947699 0 0 0 67.867188 99.9375 L 67.822266 100.01367 L 96.320312 116.46875 A 23.94233 23.942328 0 0 0 96.058594 120 A 23.94233 23.942328 0 0 0 96.292969 123.33984 L 68.328125 139.48438 A 11.947699 11.947699 0 0 0 59.185547 140.65625 A 11.947699 11.947699 0 0 0 54.8125 156.97852 A 11.947699 11.947699 0 0 0 71.132812 161.35156 A 11.947699 11.947699 0 0 0 76.445312 154.92383 L 76.601562 155.19531 L 105.09961 138.74219 A 23.94233 23.942328 0 0 0 111.03711 142.20117 L 111.03711 174.07422 A 11.954932 11.954933 0 0 0 107.37305 182.6875 A 11.954932 11.954933 0 0 0 119.32812 194.64258 A 11.954932 11.954933 0 0 0 131.2832 182.6875 A 11.954932 11.954933 0 0 0 128.78125 175.37109 L 128.78125 142.27344 A 23.94233 23.942328 0 0 0 134.74609 138.86328 L 162.39648 154.82617 A 11.947699 11.947699 0 0 0 167.91211 161.90234 A 11.947699 11.947699 0 0 0 184.23242 157.5293 A 11.947699 11.947699 0 0 0 179.85938 141.20898 A 11.947699 11.947699 0 0 0 171.83203 139.78711 L 143.67969 123.53125 A 23.94233 23.942328 0 0 0 143.94141 120 A 23.94233 23.942328 0 0 0 143.70703 116.66016 L 171.74414 100.47266 A 11.947699 11.947699 0 0 0 180.17773 99.128906 A 11.947699 11.947699 0 0 0 184.55078 82.808594 A 11.947699 11.947699 0 0 0 168.23047 78.435547 A 11.947699 11.947699 0 0 0 162.82812 85.134766 L 134.90039 101.25781 A 23.94233 23.942328 0 0 0 128.96289 97.798828 L 128.96289 65.019531 A 11.947699 11.947699 0 0 0 131.94727 57.119141 A 11.947699 11.947699 0 0 0 120 45.171875 z "
       transform="scale(0.26458334)" />
    <ellipse
       style="fill:none;stroke:#000000;stroke-width:0.0304273"
       id="path34"
       cx="31.623001"
       cy="-3.175"
       rx="1.2547863"
       ry="1.2547864"
       transform="scale(1,-1)"
       inkscape:transform-center-x="0.1269989"
       inkscape:transform-center-y="-28.575"
       inkscape:tile-cx="31.749999"
       inkscape:tile-cy="31.749999"
       inkscape:tile-w="2.5399998"
       inkscape:tile-h="2.54"
       inkscape:tile-x0="30.353001"
       inkscape:tile-y0="1.9049999" />
    <use
       x="0"
       y="0"
       inkscape:tiled-clone-of="#path34"
       xlink:href="#path34"
       id="use889"
       inkscape:transform-center-x="-23.222481"
       inkscape:transform-center-y="-5.2255208"
       width="100%"
       height="100%" />
    <use
       x="0"
       y="0"
       inkscape:tiled-clone-of="#path34"
       xlink:href="#path34"
       transform="rotate(15,31.749999,31.749999)"
       id="use891"
       inkscape:transform-center-x="-30.622562"
       inkscape:transform-center-y="-4.2847208"
       width="100%"
       height="100%" />
    <use
       x="0"
       y="0"
       inkscape:tiled-clone-of="#path34"
       xlink:href="#path34"
       transform="rotate(30,31.749999,31.749999)"
       id="use893"
       inkscape:transform-center-x="-37.526995"
       inkscape:transform-center-y="-1.4606958"
       width="100%"
       height="100%" />
    <use
       x="0"
       y="0"
       inkscape:tiled-clone-of="#path34"
       xlink:href="#path34"
       transform="rotate(45,31.749999,31.749999)"
       id="use895"
       inkscape:transform-center-x="-43.465253"
       inkscape:transform-center-y="3.0541017"
       width="100%"
       height="100%" />
    <use
       x="0"
       y="0"
       inkscape:tiled-clone-of="#path34"
       xlink:href="#path34"
       transform="rotate(60,31.749999,31.749999)"
       id="use897"
       inkscape:transform-center-x="-48.032655"
       inkscape:transform-center-y="8.9519955"
       width="100%"
       height="100%" />
    <use
       x="0"
       y="0"
       inkscape:tiled-clone-of="#path34"
       xlink:href="#path34"
       transform="rotate(75,31.749999,31.749999)"
       id="use899"
       inkscape:transform-center-x="-50.917939"
       inkscape:transform-center-y="15.831054"
       width="100%"
       height="100%" />
    <use
       x="0"
       y="0"
       inkscape:tiled-clone-of="#path34"
       xlink:href="#path34"
       transform="rotate(90,31.749999,31.749999)"
       id="use901"
       inkscape:transform-center-x="-51.924478"
       inkscape:transform-center-y="23.222481"
       width="100%"
       height="100%" />
    <use
       x="0"
       y="0"
       inkscape:tiled-clone-of="#path34"
       xlink:href="#path34"
       transform="rotate(105,31.749999,31.749999)"
       id="use903"
       inkscape:transform-center-x="-50.983678"
       inkscape:transform-center-y="30.622562"
       width="100%"
       height="100%" />
    <use
       x="0"
       y="0"
       inkscape:tiled-clone-of="#path34"
       xlink:href="#path34"
       transform="rotate(120,31.749999,31.749999)"
       id="use905"
       inkscape:transform-center-x="-48.159653"
       inkscape:transform-center-y="37.526995"
       width="100%"
       height="100%" />
    <use
       x="0"
       y="0"
       inkscape:tiled-clone-of="#path34"
       xlink:href="#path34"
       transform="rotate(135,31.749999,31.749999)"
       id="use907"
       inkscape:transform-center-x="-43.644856"
       inkscape:transform-center-y="43.465254"
       width="100%"
       height="100%" />
    <use
       x="0"
       y="0"
       inkscape:tiled-clone-of="#path34"
       xlink:href="#path34"
       transform="rotate(150,31.749999,31.749999)"
       id="use909"
       inkscape:transform-center-x="-37.746962"
       inkscape:transform-center-y="48.032655"
       width="100%"
       height="100%" />
    <use
       x="0"
       y="0"
       inkscape:tiled-clone-of="#path34"
       xlink:href="#path34"
       transform="rotate(165,31.749999,31.749999)"
       id="use911"
       inkscape:transform-center-x="-30.867903"
       inkscape:transform-center-y="50.917939"
       width="100%"
       height="100%" />
    <use
       x="0"
       y="0"
       inkscape:tiled-clone-of="#path34"
       xlink:href="#path34"
       transform="rotate(180,31.749999,31.749999)"
       id="use913"
       inkscape:transform-center-x="-23.476476"
       inkscape:transform-center-y="51.924478"
       width="100%"
       height="100%" />
    <use
       x="0"
       y="0"
       inkscape:tiled-clone-of="#path34"
       xlink:href="#path34"
       transform="rotate(-165,31.749999,31.749999)"
       id="use915"
       inkscape:transform-center-x="-16.076395"
       inkscape:transform-center-y="50.983678"
       width="100%"
       height="100%" />
    <use
       x="0"
       y="0"
       inkscape:tiled-clone-of="#path34"
       xlink:href="#path34"
       transform="rotate(-150,31.749999,31.749999)"
       id="use917"
       inkscape:transform-center-x="-9.1719622"
       inkscape:transform-center-y="48.159653"
       width="100%"
       height="100%" />
    <use
       x="0"
       y="0"
       inkscape:tiled-clone-of="#path34"
       xlink:href="#path34"
       transform="rotate(-135,31.749999,31.749999)"
       id="use919"
       inkscape:transform-center-x="-3.2337037"
       inkscape:transform-center-y="43.644856"
       width="100%"
       height="100%" />
    <use
       x="0"
       y="0"
       inkscape:tiled-clone-of="#path34"
       xlink:href="#path34"
       transform="rotate(-120,31.749999,31.749999)"
       id="use921"
       inkscape:transform-center-x="1.333698"
       inkscape:transform-center-y="37.746962"
       width="100%"
       height="100%" />
    <use
       x="0"
       y="0"
       inkscape:tiled-clone-of="#path34"
       xlink:href="#path34"
       transform="rotate(-105,31.749999,31.749999)"
       id="use923"
       inkscape:transform-center-x="4.218982"
       inkscape:transform-center-y="30.867903"
       width="100%"
       height="100%" />
    <use
       x="0"
       y="0"
       inkscape:tiled-clone-of="#path34"
       xlink:href="#path34"
       transform="rotate(-90,31.749999,31.749999)"
       id="use925"
       inkscape:transform-center-x="5.225521"
       inkscape:transform-center-y="23.476477"
       width="100%"
       height="100%" />
    <use
       x="0"
       y="0"
       inkscape:tiled-clone-of="#path34"
       xlink:href="#path34"
       transform="rotate(-75,31.749999,31.749999)"
       id="use927"
       inkscape:transform-center-x="4.2847209"
       inkscape:transform-center-y="16.076395"
       width="100%"
       height="100%" />
    <use
       x="0"
       y="0"
       inkscape:tiled-clone-of="#path34"
       xlink:href="#path34"
       transform="rotate(-60,31.749999,31.749999)"
       id="use929"
       inkscape:transform-center-x="1.4606959"
       inkscape:transform-center-y="9.1719623"
       width="100%"
       height="100%" />
    <use
       x="0"
       y="0"
       inkscape:tiled-clone-of="#path34"
       xlink:href="#path34"
       transform="rotate(-45,31.749999,31.749999)"
       id="use931"
       inkscape:transform-center-x="-3.0541015"
       inkscape:transform-center-y="3.2337038"
       width="100%"
       height="100%" />
    <use
       x="0"
       y="0"
       inkscape:tiled-clone-of="#path34"
       xlink:href="#path34"
       transform="rotate(-30,31.749999,31.749999)"
       id="use933"
       inkscape:transform-center-x="-8.9519954"
       inkscape:transform-center-y="-1.3336979"
       width="100%"
       height="100%" />
    <use
       x="0"
       y="0"
       inkscape:tiled-clone-of="#path34"
       xlink:href="#path34"
       transform="rotate(-15,31.749999,31.749999)"
       id="use935"
       inkscape:transform-center-x="-15.831054"
       inkscape:transform-center-y="-4.2189819"
       width="100%"
       height="100%" />
  </g>
</svg>
