<?xml version="1.0" encoding="UTF-8" standalone="no"?>
<svg
   xmlns:dc="http://purl.org/dc/elements/1.1/"
   xmlns:cc="http://creativecommons.org/ns#"
   xmlns:rdf="http://www.w3.org/1999/02/22-rdf-syntax-ns#"
   xmlns:svg="http://www.w3.org/2000/svg"
   xmlns="http://www.w3.org/2000/svg"
   xmlns:sodipodi="http://sodipodi.sourceforge.net/DTD/sodipodi-0.dtd"
   xmlns:inkscape="http://www.inkscape.org/namespaces/inkscape"
   viewBox="0 0 793.7007874015749 1122.5196850393702"
   width="793.7007874015749"
   height="1122.5196850393702"
   version="1.1"
   id="svg1814"
   sodipodi:docname="top_plate.svg"
   inkscape:version="1.0.2 (1.0.2+r75+1)">
  <metadata
     id="metadata1818">
    <rdf:RDF>
      <cc:Work
         rdf:about="">
        <dc:format>image/svg+xml</dc:format>
        <dc:type
           rdf:resource="http://purl.org/dc/dcmitype/StillImage" />
        <dc:title></dc:title>
      </cc:Work>
    </rdf:RDF>
  </metadata>
  <sodipodi:namedview
     pagecolor="#ffffff"
     bordercolor="#666666"
     borderopacity="1"
     objecttolerance="10"
     gridtolerance="10"
     guidetolerance="10"
     inkscape:pageopacity="0"
     inkscape:pageshadow="2"
     inkscape:window-width="2488"
     inkscape:window-height="1376"
     id="namedview1816"
     showgrid="false"
     inkscape:zoom="0.89797982"
     inkscape:cx="396.15194"
     inkscape:cy="557.73056"
     inkscape:window-x="72"
     inkscape:window-y="27"
     inkscape:window-maximized="1"
     inkscape:current-layer="g1810" />
  <defs
     id="defs1686">
    <marker
       id="DistanceX"
       orient="auto"
       refX="0.0"
       refY="0.0"
       style="overflow:visible">
      <path
         d="M 3,-3 L -3,3 M 0,-5 L  0,5"
         style="stroke:#000000; stroke-width:0.5"
         id="path1674" />
    </marker>
    <pattern
       id="Hatch"
       patternUnits="userSpaceOnUse"
       width="8"
       height="8"
       x="0"
       y="0">
      <path
         d="M8 4 l-4,4"
         stroke="#000000"
         stroke-width="0.25"
         linecap="square"
         id="path1677" />
      <path
         d="M6 2 l-4,4"
         stroke="#000000"
         stroke-width="0.25"
         linecap="square"
         id="path1679" />
      <path
         d="M4 0 l-4,4"
         stroke="#000000"
         stroke-width="0.25"
         linecap="square"
         id="path1681" />
    </pattern>
    <symbol
       id="*MODEL_SPACE" />
    <symbol
       id="*PAPER_SPACE" />
  </defs>
  <g
     inkscape:groupmode="layer"
     inkscape:label="0"
     id="g1688" />
  <g
     inkscape:groupmode="layer"
     inkscape:label="Layer_1"
     id="g1810">
    <path
       d="M 544.393701,-8673.874008 C 324.264329,-8673.874008 125.810317,-8541.271276 41.570453,-8337.898258"
       style="fill:none;stroke:#000000"
       id="path1690" />
    <path
       d="M 41.570453,-8337.898258 C -42.669407,-8134.525240 3.894478,-7900.432770 159.549449,-7744.777799"
       style="fill:none;stroke:#000000"
       id="path1692" />
    <path
       d="M 159.549449,-7744.777799 C 315.204420,-7589.122828 549.296889,-7542.558943 752.669907,-7626.798803"
       style="fill:none;stroke:#000000"
       id="path1694" />
    <path
       d="M 752.669907,-7626.798803 C 956.042925,-7711.038667 1088.645658,-7909.492679 1088.645658,-8129.622047"
       style="fill:none;stroke:#000000"
       id="path1696" />
    <path
       d="M 1088.645658,-8129.622047 C 1088.645658,-8430.204106 844.975756,-8673.874008 544.393701,-8673.874008"
       style="fill:none;stroke:#000000"
       id="path1698" />
    <path
       d="M 544.252003,-8238.387848 C 500.317652,-8238.387848 460.709363,-8211.922435 443.896418,-8171.332392"
       style="fill:none;stroke:#000000"
       id="path1700" />
    <path
       d="M 443.896418,-8171.332392 C 427.083470,-8130.742348 436.376886,-8084.021186 467.443162,-8052.954909"
       style="fill:none;stroke:#000000"
       id="path1702" />
    <path
       d="M 467.443162,-8052.954909 C 498.509439,-8021.888632 545.230602,-8012.595216 585.820645,-8029.408165"
       style="fill:none;stroke:#000000"
       id="path1704" />
    <path
       d="M 585.820645,-8029.408165 C 626.410689,-8046.221110 652.876101,-8085.829398 652.876101,-8129.763746"
       style="fill:none;stroke:#000000"
       id="path1706" />
    <path
       d="M 652.876101,-8129.763746 C 652.876101,-8158.572650 641.431809,-8186.201616 621.060839,-8206.572586"
       style="fill:none;stroke:#000000"
       id="path1708" />
    <path
       d="M 621.060839,-8206.572586 C 600.689870,-8226.943555 573.060903,-8238.387848 544.252003,-8238.387848"
       style="fill:none;stroke:#000000"
       id="path1710" />
    <path
       d="M 544.393701,-8524.204724 C 516.877527,-8524.204724 492.070775,-8507.629383 481.540792,-8482.207756"
       style="fill:none;stroke:#000000"
       id="path1712" />
    <path
       d="M 481.540792,-8482.207756 C 471.010809,-8456.786128 476.831297,-8427.524568 496.288169,-8408.067700"
       style="fill:none;stroke:#000000"
       id="path1714" />
    <path
       d="M 496.288169,-8408.067700 C 515.745041,-8388.610828 545.006597,-8382.790341 570.428224,-8393.320324"
       style="fill:none;stroke:#000000"
       id="path1716" />
    <path
       d="M 570.428224,-8393.320324 C 595.849852,-8403.850307 612.425193,-8428.657058 612.425193,-8456.173228"
       style="fill:none;stroke:#000000"
       id="path1718" />
    <path
       d="M 612.425193,-8456.173228 C 612.425193,-8474.216304 605.257610,-8491.520383 592.499229,-8504.278760"
       style="fill:none;stroke:#000000"
       id="path1720" />
    <path
       d="M 592.499229,-8504.278760 C 579.740852,-8517.037141 562.436772,-8524.204724 544.393701,-8524.204724"
       style="fill:none;stroke:#000000"
       id="path1722" />
    <path
       d="M 544.393701,-8524.204724 C 516.877527,-8524.204724 492.070775,-8507.629383 481.540792,-8482.207756"
       style="fill:none;stroke:#000000"
       id="path1724" />
    <path
       d="M 481.540792,-8482.207756 C 471.010809,-8456.786128 476.831297,-8427.524568 496.288169,-8408.067700"
       style="fill:none;stroke:#000000"
       id="path1726" />
    <path
       d="M 496.288169,-8408.067700 C 515.745041,-8388.610828 545.006597,-8382.790341 570.428224,-8393.320324"
       style="fill:none;stroke:#000000"
       id="path1728" />
    <path
       d="M 570.428224,-8393.320324 C 595.849852,-8403.850307 612.425193,-8428.657058 612.425193,-8456.173228"
       style="fill:none;stroke:#000000"
       id="path1730" />
    <path
       d="M 612.425193,-8456.173228 C 612.425193,-8474.216304 605.257610,-8491.520383 592.499229,-8504.278760"
       style="fill:none;stroke:#000000"
       id="path1732" />
    <path
       d="M 592.499229,-8504.278760 C 579.740852,-8517.037141 562.436772,-8524.204724 544.393701,-8524.204724"
       style="fill:none;stroke:#000000"
       id="path1734" />
    <path
       d="M 544.393701,-8524.204724 C 516.877527,-8524.204724 492.070775,-8507.629383 481.540792,-8482.207756"
       style="fill:none;stroke:#000000"
       id="path1736" />
    <path
       d="M 481.540792,-8482.207756 C 471.010809,-8456.786128 476.831297,-8427.524568 496.288169,-8408.067700"
       style="fill:none;stroke:#000000"
       id="path1738" />
    <path
       d="M 496.288169,-8408.067700 C 515.745041,-8388.610828 545.006597,-8382.790341 570.428224,-8393.320324"
       style="fill:none;stroke:#000000"
       id="path1740" />
    <path
       d="M 570.428224,-8393.320324 C 595.849852,-8403.850307 612.425193,-8428.657058 612.425193,-8456.173228"
       style="fill:none;stroke:#000000"
       id="path1742" />
    <path
       d="M 612.425193,-8456.173228 C 612.425193,-8474.216304 605.257610,-8491.520383 592.499229,-8504.278760"
       style="fill:none;stroke:#000000"
       id="path1744" />
    <path
       d="M 592.499229,-8504.278760 C 579.740852,-8517.037141 562.436772,-8524.204724 544.393701,-8524.204724"
       style="fill:none;stroke:#000000"
       id="path1746" />
    <path
       d="M 886.756679,-8326.418287 C 872.998594,-8350.247981 846.240559,-8363.443578 818.959801,-8359.851991"
       style="fill:none;stroke:#000000"
       id="path1748" />
    <path
       d="M 818.959801,-8359.851991 C 791.679046,-8356.260404 769.248049,-8336.588939 762.126346,-8310.010367"
       style="fill:none;stroke:#000000"
       id="path1750" />
    <path
       d="M 762.126346,-8310.010367 C 755.004646,-8283.431796 764.594736,-8255.180311 786.424781,-8238.429536"
       style="fill:none;stroke:#000000"
       id="path1752" />
    <path
       d="M 786.424781,-8238.429536 C 808.254822,-8221.678764 838.025760,-8219.727481 861.855451,-8233.485566"
       style="fill:none;stroke:#000000"
       id="path1754" />
    <path
       d="M 861.855451,-8233.485566 C 877.481204,-8242.507102 888.883177,-8257.366447 893.553063,-8274.794714"
       style="fill:none;stroke:#000000"
       id="path1756" />
    <path
       d="M 893.553063,-8274.794714 C 898.222949,-8292.222981 895.778219,-8310.792533 886.756679,-8326.418287"
       style="fill:none;stroke:#000000"
       id="path1758" />
    <path
       d="M 544.393701,-8524.204724 L 544.393701,-8524.204724 L 544.393701,-8524.204724 L 544.393701,-8524.204724 z"
       style="fill:none;stroke:#000000"
       id="path1760" />
    <path
       d="M 886.643875,-7931.030256 C 900.401960,-7954.859951 898.450677,-7984.630889 881.699906,-8006.460930"
       style="fill:none;stroke:#000000"
       id="path1762" />
    <path
       d="M 881.699906,-8006.460930 C 864.949130,-8028.290971 836.697645,-8037.881065 810.119074,-8030.759365"
       style="fill:none;stroke:#000000"
       id="path1764" />
    <path
       d="M 810.119074,-8030.759365 C 783.540503,-8023.637662 763.869037,-8001.206665 760.277450,-7973.925906"
       style="fill:none;stroke:#000000"
       id="path1766" />
    <path
       d="M 760.277450,-7973.925906 C 756.685863,-7946.645151 769.881460,-7919.887117 793.711155,-7906.129032"
       style="fill:none;stroke:#000000"
       id="path1768" />
    <path
       d="M 793.711155,-7906.129032 C 809.336908,-7897.107492 827.906460,-7894.662762 845.334728,-7899.332648"
       style="fill:none;stroke:#000000"
       id="path1770" />
    <path
       d="M 845.334728,-7899.332648 C 862.762995,-7904.002534 877.622340,-7915.404503 886.643875,-7931.030256"
       style="fill:none;stroke:#000000"
       id="path1772" />
    <path
       d="M 544.174518,-7733.426525 C 571.690692,-7733.426525 596.497444,-7750.001866 607.027427,-7775.423494"
       style="fill:none;stroke:#000000"
       id="path1774" />
    <path
       d="M 607.027427,-7775.423494 C 617.557410,-7800.845117 611.736922,-7830.106677 592.280050,-7849.563549"
       style="fill:none;stroke:#000000"
       id="path1776" />
    <path
       d="M 592.280050,-7849.563549 C 572.823179,-7869.020421 543.561623,-7874.840908 518.139995,-7864.310925"
       style="fill:none;stroke:#000000"
       id="path1778" />
    <path
       d="M 518.139995,-7864.310925 C 492.718367,-7853.780942 476.143026,-7828.974191 476.143026,-7801.458017"
       style="fill:none;stroke:#000000"
       id="path1780" />
    <path
       d="M 476.143026,-7801.458017 C 476.143026,-7783.414946 483.310609,-7766.110866 496.068986,-7753.352485"
       style="fill:none;stroke:#000000"
       id="path1782" />
    <path
       d="M 496.068986,-7753.352485 C 508.827368,-7740.594108 526.131447,-7733.426525 544.174518,-7733.426525"
       style="fill:none;stroke:#000000"
       id="path1784" />
    <path
       d="M 201.816896,-7931.209746 C 215.574981,-7907.380055 242.333015,-7894.184459 269.613774,-7897.776042"
       style="fill:none;stroke:#000000"
       id="path1786" />
    <path
       d="M 269.613774,-7897.776042 C 296.894529,-7901.367628 319.325529,-7921.039094 326.447229,-7947.617666"
       style="fill:none;stroke:#000000"
       id="path1788" />
    <path
       d="M 326.447229,-7947.617666 C 333.568932,-7974.196241 323.978838,-8002.447725 302.148794,-8019.198497"
       style="fill:none;stroke:#000000"
       id="path1790" />
    <path
       d="M 302.148794,-8019.198497 C 280.318753,-8035.949269 250.547815,-8037.900556 226.718124,-8024.142471"
       style="fill:none;stroke:#000000"
       id="path1792" />
    <path
       d="M 226.718124,-8024.142471 C 211.092370,-8015.120931 199.690397,-8000.261586 195.020511,-7982.833323"
       style="fill:none;stroke:#000000"
       id="path1794" />
    <path
       d="M 195.020511,-7982.833323 C 190.350626,-7965.405056 192.795360,-7946.835500 201.816896,-7931.209746"
       style="fill:none;stroke:#000000"
       id="path1796" />
    <path
       d="M 201.924344,-8326.603132 C 188.166255,-8302.773441 190.117542,-8273.002503 206.868314,-8251.172462"
       style="fill:none;stroke:#000000"
       id="path1798" />
    <path
       d="M 206.868314,-8251.172462 C 223.619089,-8229.342418 251.870574,-8219.752324 278.449145,-8226.874027"
       style="fill:none;stroke:#000000"
       id="path1800" />
    <path
       d="M 278.449145,-8226.874027 C 305.027717,-8233.995727 324.699182,-8256.426728 328.290769,-8283.707482"
       style="fill:none;stroke:#000000"
       id="path1802" />
    <path
       d="M 328.290769,-8283.707482 C 331.882352,-8310.988241 318.686759,-8337.746275 294.857065,-8351.504360"
       style="fill:none;stroke:#000000"
       id="path1804" />
    <path
       d="M 294.857065,-8351.504360 C 279.231311,-8360.525900 260.661755,-8362.970631 243.233492,-8358.300745"
       style="fill:none;stroke:#000000"
       id="path1806" />
    <path
       d="M 243.233492,-8358.300745 C 225.805225,-8353.630859 210.945880,-8342.228886 201.924344,-8326.603132"
       style="fill:none;stroke:#000000"
       id="path1808" />
  </g>
  <desc
     id="desc1812">top_plate.dxf - scale = 1.000000, origin = (0.000000, 0.000000), method = file</desc>
</svg>
